<?xml version="1.0" encoding="UTF-8"?>
<svg version="1.1" xmlns="http://www.w3.org/2000/svg" width="1024" height="1024">
<path d="M0 0 C337.92 0 675.84 0 1024 0 C1024 337.92 1024 675.84 1024 1024 C686.08 1024 348.16 1024 0 1024 C0 686.08 0 348.16 0 0 Z " fill="#9ABF5D" transform="translate(0,0)"/>
<path d="M0 0 C47.85 0 95.7 0 145 0 C145 52.8 145 105.6 145 160 C133.78 160.33 122.56 160.66 111 161 C107.70538597 165.770226 107.70538597 165.770226 105.4375 170.6875 C104.13412459 173.69093029 103.26341428 174.83946818 101 177 C100.28552357 179.10332891 100.28552357 179.10332891 100 181 C99.34 181 98.68 181 98 181 C97.74863281 181.66773438 97.49726562 182.33546875 97.23828125 183.0234375 C95.72794199 186.6539691 93.96909371 190.12174004 92.1875 193.625 C91.11803848 195.76003497 90.05167648 197.89660027 88.98535156 200.03320312 C88.13053432 201.73944884 87.26540584 203.44052123 86.3984375 205.140625 C83.47530105 211.12365283 82.15913119 216.33095646 82 223 C82.66 223 83.32 223 84 223 C84 224.32 84 225.64 84 227 C84.66 227 85.32 227 86 227 C87.12379921 228.4448847 88.24450734 229.89408294 89.29296875 231.39453125 C91.56562534 233.71574908 91.56562534 233.71574908 98 236 C98 249.86 98 263.72 98 278 C100.64 278 103.28 278 106 278 C106 264.47 106 250.94 106 237 C108.64 237 111.28 237 114 237 C114 236.34 114 235.68 114 235 C115.41478135 234.35004703 116.83191487 233.70521278 118.25 233.0625 C119.03890625 232.70285156 119.8278125 232.34320313 120.640625 231.97265625 C124.94060438 230.19998263 124.94060438 230.19998263 127 230 C128.5 231.33203125 128.5 231.33203125 130 233 C137.23329641 236.66185631 145.29937527 237.27221483 153.07421875 235.16796875 C158.50272286 233.36110082 158.50272286 233.36110082 163 230 C166.40206841 230.32923243 167.66906591 231.66906591 170 234 C174.64533104 236.46247646 179.23911515 236.43639771 184.375 236.5 C185.2 236.54125 186.025 236.5825 186.875 236.625 C191.69285546 236.68617912 194.25009618 236.22536136 197.8515625 232.90625 C198.6262085 232.06030273 198.6262085 232.06030273 199.41650391 231.19726562 C201 230 201 230 203.08544922 230.24609375 C205.84450361 231.33254618 207.89886639 233.03002281 210.21875 234.84375 C215.7992119 238.4661551 223.66244835 237.5347535 230 237 C232.92113325 236.01160986 234.49489882 234.90605525 237 233 C237.804375 232.4225 238.60875 231.845 239.4375 231.25 C240.2109375 230.63125 240.2109375 230.63125 241 230 C243.19462349 231.05667057 245.21960411 232.14640274 247.25 233.5 C250.76744955 235.41860885 254.10091354 236.09021316 258 237 C259 238 259 238 259.11352539 241.69360352 C259.11336624 243.33871292 259.10766988 244.98382731 259.09765625 246.62890625 C259.0962413 247.49313705 259.09482635 248.35736786 259.09336853 249.24778748 C259.08775239 252.01939292 259.07519719 254.7909188 259.0625 257.5625 C259.05748708 259.4368478 259.05292381 261.31119685 259.04882812 263.18554688 C259.03777772 267.79039544 259.0205023 272.39518421 259 277 C260.59485229 276.96072388 260.59485229 276.96072388 262.22192383 276.9206543 C266.2156825 276.82926557 270.2093514 276.77243349 274.20385742 276.7253418 C275.92341724 276.70039732 277.64287324 276.66642857 279.36206055 276.62280273 C291.00239863 276.33509447 300.40376257 276.52161233 309.7890625 284.31640625 C310.39492188 285.05761719 311.00078125 285.79882812 311.625 286.5625 C312.25664063 287.30628906 312.88828125 288.05007813 313.5390625 288.81640625 C317.69695128 295.03100472 316.85425131 303.64749888 315.47119141 310.69433594 C313.27016457 320.29036406 310.67740214 329.62338229 306.91015625 338.72485352 C305.67867876 341.80321692 304.75694087 344.93074358 303.875 348.125 C303.37806641 349.92324219 303.37806641 349.92324219 302.87109375 351.7578125 C302.43990234 353.36269531 302.43990234 353.36269531 302 355 C301.80535156 355.71929688 301.61070312 356.43859375 301.41015625 357.1796875 C300.34032588 361.29986066 299.48904527 365.45725225 298.625 369.625 C297.09667929 376.8668889 295.12173653 383.91318459 293 391 C292.34 391 291.68 391 291 391 C290.89429688 391.92425781 290.78859375 392.84851563 290.6796875 393.80078125 C289.93037115 399.03416439 288.49364531 404.08844653 287.125 409.1875 C286.57760308 411.25116371 286.03072218 413.31496438 285.484375 415.37890625 C285.09475586 416.84674561 285.09475586 416.84674561 284.69726562 418.34423828 C283.88725681 421.4294189 283.12411085 424.52451343 282.375 427.625 C281.15544846 432.55255217 279.67659468 437.37537252 278.16015625 442.21875 C274.7715842 453.26298481 271.68647932 464.40151451 268.69433594 475.55883789 C266.71785569 482.91325715 264.71881986 490.25279517 262.375 497.5 C261.82972656 499.18609375 261.82972656 499.18609375 261.2734375 500.90625 C258.94486595 506.56339314 255.54443058 510.93393053 251 515 C250.34 515 249.68 515 249 515 C249 515.66 249 516.32 249 517 C233.86782727 523.93557917 214.90729781 522.56035968 198.625 523.0625 C196.02099376 523.14779663 193.4169899 523.23316606 190.81298828 523.31860352 C173.04373753 523.88569859 155.27465768 524.23435616 137.49822998 524.48513794 C107.10024139 524.92453243 76.71574795 525.88274975 46.3290863 526.79832077 C40.95379277 526.96020114 35.57846785 527.12101629 30.203125 527.28125 C29.15098061 527.31267971 28.09883621 527.34410942 27.01480865 527.37649155 C11.45128345 527.83897704 -4.11268272 528.21945183 -19.6796875 528.54296875 C-41.25902237 528.97424393 -41.25902237 528.97424393 -62.82958984 529.71020508 C-64.59425715 529.78112351 -66.35928688 529.84335183 -68.12451172 529.89868164 C-70.8209884 529.98376119 -73.51556795 530.09256705 -76.2109375 530.20703125 C-76.987789 530.22699661 -77.7646405 530.24696198 -78.56503296 530.26753235 C-85.2590479 530.60150077 -90.76211692 532.58544194 -95.375 537.5625 C-95.91125 538.366875 -96.4475 539.17125 -97 540 C-97.66 540.99 -98.32 541.98 -99 543 C-99.14245897 545.76655324 -99.18769445 548.42653306 -99.125 551.1875 C-99.11597656 551.93708984 -99.10695313 552.68667969 -99.09765625 553.45898438 C-99.07412578 555.30612654 -99.03825561 557.15310412 -99 559 C-98.01 559.33 -97.02 559.66 -96 560 C-95.360625 560.804375 -94.72125 561.60875 -94.0625 562.4375 C-91.97302461 565.03351488 -91.02686766 565.82947695 -88 567 C-85.39781979 567.30027835 -85.39781979 567.30027835 -82.52700996 567.2561264 C-81.40805938 567.2623585 -80.28910879 567.26859059 -79.13625062 567.27501154 C-77.90689124 567.27171257 -76.67753187 567.26841359 -75.41091919 567.26501465 C-73.4520376 567.27158655 -73.4520376 567.27158655 -71.45358264 567.27829123 C-67.82567505 567.2902287 -64.19785763 567.28977126 -60.56993508 567.28735614 C-56.65845502 567.28693718 -52.74700623 567.29802986 -48.83554077 567.30781555 C-42.05628428 567.32328105 -35.27704862 567.33168244 -28.49777603 567.33552551 C-18.68951507 567.34126983 -8.88131018 567.35985156 0.92692603 567.38196605 C16.84824752 567.41769895 32.76957217 567.44600626 48.69091797 567.46826172 C49.64407883 567.46959671 50.59723969 567.4709317 51.57928421 567.47230715 C58.34452254 567.48173415 65.10976122 567.49089687 71.875 567.5 C79.59944688 567.51039523 87.32389356 567.52091259 95.04833984 567.53173828 C96.47543275 567.53373439 96.47543275 567.53373439 97.93135582 567.53577083 C113.79012161 567.5581945 129.64886349 567.5883873 145.50760472 567.62413073 C155.29189341 567.6458045 165.07614486 567.6604188 174.86045624 567.66596949 C181.5641151 567.67021431 188.2677385 567.68144585 194.97137772 567.69819343 C198.84042598 567.70760505 202.70940792 567.71371019 206.57846832 567.71113014 C210.77136535 567.70839405 214.96407754 567.72095209 219.1569519 567.73498535 C220.38184983 567.73168638 221.60674776 567.7283874 222.8687638 567.72498846 C223.99292988 567.73122056 225.11709596 567.73745265 226.27532768 567.7438736 C227.24296512 567.74506777 228.21060255 567.74626195 229.20756233 567.74749231 C233.60287243 568.14494061 236.98698898 569.14693809 240.375 572 C242.70811132 576.30728244 242.3353813 580.20218424 242 585 C241.34 585.33 240.68 585.66 240 586 C239.67 586.99 239.34 587.98 239 589 C235.41274201 591.70067579 232.79530696 592.37629264 228.35101509 592.38590336 C227.21820677 592.3955767 226.08539845 592.40525004 224.9182626 592.41521651 C223.67850041 592.4105707 222.43873821 592.40592489 221.16140747 592.40113831 C219.82721658 592.40674416 218.49303061 592.41364688 217.15885246 592.42173427 C213.49354036 592.44009095 209.82843352 592.43968723 206.16308594 592.43615115 C202.20917087 592.43553914 198.25532175 592.45209578 194.30143738 592.46632385 C186.5533209 592.49125061 178.80527289 592.49948885 171.05711968 592.50116099 C164.75491635 592.50258689 158.45273559 592.50875328 152.1505394 592.51826286 C134.2713569 592.54469079 116.39222842 592.55852063 98.51302625 592.55627144 C97.54902056 592.55615157 96.58501486 592.5560317 95.59179688 592.5559082 C94.62660924 592.55578556 93.6614216 592.55566292 92.66698585 592.55553656 C77.04451607 592.5543187 61.42226374 592.58298665 45.7998568 592.6253233 C29.74778446 592.66847967 13.69581797 592.68913003 -2.35631382 592.68654197 C-11.36370273 592.68554791 -20.37086401 592.6937064 -29.37820053 592.72607613 C-37.05231043 592.75347792 -44.72608968 592.75984709 -52.40022747 592.73954786 C-56.31111658 592.72979293 -60.22137248 592.72943063 -64.13220024 592.7556076 C-97.42985011 592.96444563 -97.42985011 592.96444563 -111.0625 582.25 C-115.34013819 578.02060585 -118.29505803 573.34411028 -121 568 C-121.62068359 566.89785156 -121.62068359 566.89785156 -122.25390625 565.7734375 C-126.25973886 557.65011143 -125.34586529 548.81956484 -125 540 C-124.34 540 -123.68 540 -123 540 C-122.979375 538.906875 -122.95875 537.81375 -122.9375 536.6875 C-121.97600464 529.06324807 -116.86190267 522.32374531 -111.1875 517.375 C-108 515 -108 515 -106 514 C-106.50667554 506.40722524 -107.96969794 499.29382477 -109.875 491.9375 C-110.25978516 490.40125977 -110.25978516 490.40125977 -110.65234375 488.83398438 C-111.80004523 484.3210376 -113.00033003 479.88899564 -114.5703125 475.50390625 C-116.09017602 471.11220184 -116.75423661 466.71145358 -117.45898438 462.12841797 C-118.37231075 456.84711647 -119.81717255 451.72272402 -121.25 446.5625 C-121.55574951 445.44230469 -121.86149902 444.32210938 -122.17651367 443.16796875 C-124.38881366 435.09870603 -126.6681381 427.04780554 -129.04589844 419.02563477 C-130.69030314 413.39836128 -131.89749375 407.7553127 -133 402 C-133.48736927 399.72642237 -133.98552646 397.45509807 -134.5 395.1875 C-134.7371875 394.12917969 -134.974375 393.07085938 -135.21875 391.98046875 C-135.94925613 389.19358787 -136.92453635 386.66680011 -138 384 C-138.33271399 382.5714423 -138.62346168 381.13256199 -138.875 379.6875 C-140.12983435 373.07020949 -141.82065369 366.56796079 -143.48095703 360.04394531 C-144.26709671 356.94819677 -145.03940204 353.84902786 -145.8125 350.75 C-145.96887939 350.12577148 -146.12525879 349.50154297 -146.28637695 348.85839844 C-147.43318721 344.27993262 -148.56976156 339.6990014 -149.703125 335.1171875 C-150.32290207 332.61978804 -150.94269383 330.12239223 -151.5625 327.625 C-151.85552002 326.43616211 -152.14854004 325.24732422 -152.45043945 324.02246094 C-153.9446422 318.01194928 -155.54870034 312.06972821 -157.36791992 306.14990234 C-158.20712752 303.29549444 -158.80732262 300.41948367 -159.375 297.5 C-160.70731053 291.04287596 -162.42241289 284.74384034 -164.23168945 278.40576172 C-165.33847911 274.49524494 -166.34149991 270.6291255 -167.0625 266.625 C-167.91586621 261.89491301 -169.47827796 257.49585988 -171.05859375 252.96484375 C-171.94809103 250.16348096 -172.55130699 247.45353275 -173.0625 244.5625 C-174.27077353 238.14226692 -177.00658907 234.48041752 -181.94946289 230.328125 C-185.50285888 228.02660408 -188.9808296 228.01965575 -193.125 227.875 C-195.06803034 227.75375245 -197.01072209 227.62700903 -198.953125 227.49609375 C-200.59571289 227.39143799 -200.59571289 227.39143799 -202.27148438 227.28466797 C-210.61332666 226.64777771 -218.92177693 225.61369099 -227.23345947 224.6696167 C-229.5276648 224.41038207 -231.82227294 224.15521908 -234.1171875 223.90234375 C-234.85748199 223.81980347 -235.59777649 223.73726318 -236.36050415 223.65222168 C-240.07868928 223.25332185 -243.78074452 222.93691704 -247.51660156 222.76220703 C-248.24090363 222.72752823 -248.96520569 222.69284943 -249.7114563 222.65711975 C-251.69006239 222.57200902 -253.66950795 222.50709332 -255.64892578 222.44360352 C-260.88897045 221.74994468 -264.76638888 219.15750001 -268 215 C-268.88647857 210.2130157 -269.37999354 204.42977433 -266.90625 200.07421875 C-265.5625 198.75 -265.5625 198.75 -263 197 C-262.67 196.67 -262.34 196.34 -262 196 C-251.09522628 195.38389571 -240.33920842 196.37285924 -229.52197266 197.65405273 C-227.07950348 197.94288006 -224.63571863 198.21748577 -222.19140625 198.49023438 C-220.63011642 198.6684675 -219.06891456 198.84747336 -217.5078125 199.02734375 C-216.41740158 199.1508445 -216.41740158 199.1508445 -215.30496216 199.27684021 C-210.23312558 199.88343721 -210.23312558 199.88343721 -208 201 C-208 201.66 -208 202.32 -208 203 C-207.18660156 202.97679687 -206.37320313 202.95359375 -205.53515625 202.9296875 C-198.64697566 202.82121222 -191.9628669 203.07554224 -185.125 203.875 C-184.43672119 203.95347168 -183.74844238 204.03194336 -183.03930664 204.11279297 C-178.24166796 204.71357887 -173.67214947 205.75618392 -169 207 C-169 207.66 -169 208.32 -169 209 C-168.43152344 209.08121094 -167.86304688 209.16242188 -167.27734375 209.24609375 C-160.88544637 211.36210781 -155.33130438 219.02036772 -152.046875 224.734375 C-147.53039193 234.50885329 -145.53133083 245.56423044 -143 256 C-142.43994387 258.29226514 -141.87770504 260.58399899 -141.3125 262.875 C-140.96638672 264.29425781 -140.96638672 264.29425781 -140.61328125 265.7421875 C-140.07669566 268.01087631 -140.07669566 268.01087631 -139 270 C-139 272.31 -139 274.62 -139 277 C-128.44 277 -117.88 277 -107 277 C-107.10211792 273.5342749 -107.10211792 273.5342749 -107.20629883 269.99853516 C-107.42240273 262.33592277 -107.56556848 254.67316995 -107.67355824 247.00831032 C-107.74120849 242.36375463 -107.83282137 237.72233829 -107.98071289 233.07958984 C-108.12274238 228.59240697 -108.19984319 224.10822705 -108.23340416 219.61896896 C-108.25729292 217.91302578 -108.30395229 216.20723417 -108.37449074 214.50258255 C-108.88816223 201.56582204 -108.88816223 201.56582204 -105.7425499 197.29125214 C-101.01312238 192.51995642 -95.30184972 189.27366257 -89 187 C-89 186.34 -89 185.68 -89 185 C-86.8270767 183.15152689 -84.64597332 181.4078651 -82.375 179.6875 C-81.13214003 178.73394877 -79.88994698 177.77952763 -78.6484375 176.82421875 C-78.03838867 176.35806152 -77.42833984 175.8919043 -76.79980469 175.41162109 C-75.0440813 174.0345738 -73.35365924 172.60148747 -71.6640625 171.14453125 C-69 169 -69 169 -67 169 C-67 168.34 -67 167.68 -67 167 C-64.97096601 165.29477963 -62.9395749 163.69908132 -60.8125 162.125 C-59.65202578 161.25302718 -58.49186524 160.38063672 -57.33203125 159.5078125 C-56.76822754 159.08790039 -56.20442383 158.66798828 -55.62353516 158.23535156 C-54.11784289 157.08966692 -52.65619295 155.88672052 -51.19921875 154.6796875 C-49 153 -49 153 -47 153 C-47 152.34 -47 151.68 -47 151 C-42.6024764 146.92424642 -36.21665269 141.21167814 -30 141 C-27.7283924 142.61356254 -25.78861955 144.1918433 -23.75 146.0625 C-22.58215212 147.09406111 -21.41288808 148.12402126 -20.2421875 149.15234375 C-19.68112305 149.64976074 -19.12005859 150.14717773 -18.54199219 150.65966797 C-16.71834984 152.24481624 -14.82793187 153.70284422 -12.875 155.125 C-1.16106828 163.69190529 -1.16106828 163.69190529 3.51171875 168.58203125 C5.01370333 170.11995073 5.01370333 170.11995073 7.203125 171.30078125 C10.99648882 173.60540871 14.32478448 176.37359953 17.75 179.1875 C18.4608374 179.76757812 19.1716748 180.34765625 19.90405273 180.9453125 C24.34716983 184.58865838 28.70191948 188.30411114 32.91015625 192.21875 C34.85541583 193.98309737 34.85541583 193.98309737 36.70739841 194.99602032 C38.69379023 196.19654046 40.34989389 197.3636958 42 199 C42.69582882 201.94477604 42.89835606 203.79715908 42.79467773 206.7277832 C42.79569992 207.48929184 42.79672211 208.25080048 42.79777527 209.03538513 C42.79291433 211.5419589 42.73855505 214.04484766 42.68359375 216.55078125 C42.67053196 218.2923941 42.66057053 220.03403274 42.65357971 221.77568054 C42.62689917 226.35156732 42.55817851 230.92588954 42.48065186 235.50115967 C42.40894151 240.17308385 42.37705168 244.84526179 42.34179688 249.51757812 C42.2668062 258.67907146 42.14739343 267.83940545 42 277 C44.64 277 47.28 277 50 277 C50 253.9 50 230.8 50 207 C54 208 54 208 57 209 C62.73094325 209.45847546 67.92865883 208.76084596 73 206 C76.12218254 202.84442513 77.21350294 199.3774203 77.375 195 C77.28104856 190.64065342 76.59751375 185.90420683 73.73339844 182.49023438 C72.10652071 180.99280268 70.42728847 179.61453998 68.6875 178.25 C68.06955566 177.74339844 67.45161133 177.23679687 66.81494141 176.71484375 C65.52815899 175.66002897 64.23641562 174.61123896 62.93994141 173.56835938 C59.87809997 171.09299197 56.87873313 168.54525719 53.875 166 C53.07775513 165.33339355 53.07775513 165.33339355 52.2644043 164.65332031 C50.02452565 162.77232519 47.87676371 160.87477246 45.82421875 158.7890625 C43.96363744 156.7950165 43.96363744 156.7950165 40.9375 155.375 C36.22297473 152.82551423 32.5876834 149.08044303 28.69140625 145.44921875 C25.94463446 142.94961656 23.11559255 140.7459004 20.11328125 138.5703125 C9.42089207 130.62513607 9.42089207 130.62513607 5.42578125 126.29296875 C3.80216911 124.6161779 3.80216911 124.6161779 0 124 C0 83.08 0 42.16 0 0 Z " fill="#FCFDFB" transform="translate(485,211)"/>
<path d="M0 0 C0.33 0 0.66 0 1 0 C1 159.72 1 319.44 1 484 C-156.74 484 -314.48 484 -477 484 C-477 483.67 -477 483.34 -477 483 C-476.07729813 482.9039019 -476.07729813 482.9039019 -475.13595581 482.80586243 C-468.61035736 482.12355169 -462.08696729 481.42235785 -455.56445312 480.71118164 C-453.14470282 480.44970386 -450.72446273 480.19271136 -448.30371094 479.94067383 C-433.42330696 478.38780179 -419.00727882 476.24467725 -404.48934937 472.60649109 C-400.05392869 471.52587012 -395.5873321 470.58700523 -391.125 469.625 C-370.13308263 464.93133168 -348.88995209 458.86652514 -329.1328125 450.28125 C-325.24399378 448.69081042 -321.28844393 447.35397009 -317.3125 446 C-311.89090761 444.14059197 -306.95022621 442.12093811 -302.02734375 439.14453125 C-299.78504706 437.87864892 -297.53190002 436.97494416 -295.125 436.0625 C-290.41313447 434.25982672 -286.11325479 431.96767383 -281.73828125 429.46484375 C-279 428 -279 428 -275.8671875 426.71875 C-270.58326353 424.50226449 -265.73564046 421.47300616 -260.8125 418.5625 C-259.7603833 417.94358887 -258.7082666 417.32467773 -257.62426758 416.68701172 C-255.46207553 415.41317981 -253.30118608 414.13713432 -251.14160156 412.85888672 C-248.22030193 411.13035273 -245.29413597 409.4103498 -242.3671875 407.69140625 C-234.38580288 402.9797003 -226.55740052 398.2639065 -219.19140625 392.62109375 C-212.94457831 388 -212.94457831 388 -210 388 C-210 387.34 -210 386.68 -210 386 C-208.0859375 384.44140625 -208.0859375 384.44140625 -205.375 382.5625 C-200.03740104 378.79437638 -194.91795844 374.81870015 -189.86083984 370.68188477 C-186.6810428 368.13026921 -183.8018359 366.42483219 -180 365 C-178.65589738 362.98264795 -178.65589738 362.98264795 -178 361 C-177.34 361 -176.68 361 -176 361 C-176 360.34 -176 359.68 -176 359 C-170.52380952 354 -170.52380952 354 -168 354 C-168 353.34 -168 352.68 -168 352 C-166.35546875 350.37890625 -166.35546875 350.37890625 -164.1875 348.5625 C-161.17536735 346.02660668 -161.17536735 346.02660668 -158.36328125 343.27734375 C-157 342 -157 342 -155 342 C-155 341.34 -155 340.68 -155 340 C-153.125 337.875 -153.125 337.875 -151 336 C-150.34 336 -149.68 336 -149 336 C-149 335.34 -149 334.68 -149 334 C-148.34 334 -147.68 334 -147 334 C-147 333.34 -147 332.68 -147 332 C-146.34 332 -145.68 332 -145 332 C-145 331.34 -145 330.68 -145 330 C-144.34 330 -143.68 330 -143 330 C-143 329.34 -143 328.68 -143 328 C-142.34 328 -141.68 328 -141 328 C-140.75378906 327.42378906 -140.50757813 326.84757812 -140.25390625 326.25390625 C-138.79837901 323.6375847 -137.11391269 321.99108164 -134.9375 319.9375 C-130.74105277 315.83475335 -127.03544779 311.51244862 -123.37109375 306.93359375 C-121.31049044 304.3841488 -119.20017465 301.88877484 -117.05957031 299.40649414 C-105.94065353 286.9425919 -105.94065353 286.9425919 -97 273 C-96.34 273 -95.68 273 -95 273 C-94.7628125 272.31550781 -94.525625 271.63101562 -94.28125 270.92578125 C-92.73502308 267.39491551 -90.67721998 264.34736277 -88.5 261.1875 C-84.8413042 255.78688714 -81.26794065 250.34560432 -77.8125 244.8125 C-77.39871094 244.15080811 -76.98492188 243.48911621 -76.55859375 242.80737305 C-73.34957306 237.63934231 -70.31993848 232.38604264 -67.375 227.0625 C-66.92125 226.381875 -66.4675 225.70125 -66 225 C-65.34 225 -64.68 225 -64 225 C-63.89171875 224.28199219 -63.7834375 223.56398438 -63.671875 222.82421875 C-62.94230106 219.75746316 -61.81484239 217.54290798 -60.25 214.8125 C-58.19708574 211.16342035 -56.22223241 207.50756904 -54.375 203.75 C-52.96743259 200.88975085 -51.50942049 198.11141613 -49.875 195.375 C-48.18361253 192.33050256 -46.95311356 189.46172543 -45.79296875 186.19921875 C-44.31080172 182.08857818 -42.63555507 178.05152728 -41 174 C-40.34 174 -39.68 174 -39 174 C-38.896875 173.34128906 -38.79375 172.68257812 -38.6875 172.00390625 C-37.80805926 168.16134983 -36.42578224 164.6061991 -35 160.9375 C-32.72098214 155.05889868 -32.72098214 155.05889868 -31 149 C-30.34 149 -29.68 149 -29 149 C-28.9175 148.113125 -28.835 147.22625 -28.75 146.3125 C-27.67036658 138.88817157 -24.9612826 131.74552457 -22.5078125 124.68359375 C-19.58075827 116.21241899 -17.15797331 107.97819062 -15.640625 99.13671875 C-15 96 -15 96 -14.04541016 93.69458008 C-11.97270247 88.35210584 -11.1962165 82.61419885 -10.125 77 C-9.99371704 76.31627319 -9.86243408 75.63254639 -9.72717285 74.92810059 C-5.39385143 52.23770844 -2.55675888 29.53960965 -1.23364258 6.47241211 C-1.02027033 4.21450118 -0.6196513 2.17721342 0 0 Z " fill="#FEFEFE" transform="translate(1023,540)"/>
<path d="M0 0 C162.69 0 325.38 0 493 0 C493 158.07 493 316.14 493 479 C492.67 479 492.34 479 492 479 C491.37059805 474.08388522 490.74665319 469.16709889 490.125 464.25 C490.03185516 463.51593933 489.93871033 462.78187866 489.84274292 462.02557373 C488.86865699 454.33076853 487.91840295 446.64676191 487.25830078 438.91748047 C485.58453296 419.32062276 481.0662067 400.29343215 475.67578125 381.42333984 C474.68311113 377.86364201 473.80685805 374.27890972 472.9375 370.6875 C469.06233653 354.6657404 469.06233653 354.6657404 463.03515625 339.3828125 C461.07812059 334.87793795 459.71535676 330.13549762 458.24609375 325.453125 C457.1078078 322.29875265 455.74813659 319.83782385 454 317 C452.93087761 314.26430448 452.00056285 311.50166978 451.0625 308.71875 C449.96878494 305.92012617 448.54711461 303.56894893 447 301 C446.43980518 299.47219594 445.92085583 297.92882451 445.4375 296.375 C442.60249365 288.35322068 438.43842647 281.00710548 434.38525391 273.55126953 C433.02088812 271.03847037 431.67174434 268.51795508 430.32421875 265.99609375 C420.97357464 248.61507638 410.37278628 232.12029017 399 216 C398.34902344 215.07445312 397.69804688 214.14890625 397.02734375 213.1953125 C388.64172477 201.48037133 379.89471488 189.85597798 370.08203125 179.296875 C367.74025767 176.71345499 365.55977465 174.02969872 363.375 171.3125 C360.31087986 167.52490705 357.15336511 164.0264899 353.6484375 160.6484375 C351.98537988 158.98537988 350.5029804 157.24565409 349 155.4375 C344.88664308 150.65104831 340.23599915 146.44958734 335.59375 142.18725586 C332.44842761 139.29790046 329.35936315 136.38057047 326.359375 133.33984375 C323.62174485 130.57952818 320.78804849 128.05730263 317.75 125.625 C316.81671875 124.8721875 315.8834375 124.119375 314.921875 123.34375 C313.47554687 122.18359375 313.47554687 122.18359375 312 121 C309.99780334 119.37770732 307.99773483 117.75278394 306 116.125 C305.113125 115.40570313 304.22625 114.68640625 303.3125 113.9453125 C301 112 301 112 299.4296875 110.359375 C297.77385284 108.78497483 296.2111213 108.042244 294.125 107.125 C290.29707158 105.28371798 287.98543742 103.0548662 285 100 C278.68566625 95.05290215 272.03741337 90.65435832 265.21484375 86.4453125 C263 85 263 85 261 83 C258.68351201 81.96157435 256.35096976 80.9578025 254 80 C254 79.34 254 78.68 254 78 C252.865625 77.731875 251.73125 77.46375 250.5625 77.1875 C249.386875 76.795625 248.21125 76.40375 247 76 C246.67 75.01 246.34 74.02 246 73 C244.00207384 72.04764395 244.00207384 72.04764395 241.625 71.4375 C238.54588761 70.54987314 236.72662828 69.81775218 234 68 C234 67.34 234 66.68 234 66 C233.0409375 65.62875 233.0409375 65.62875 232.0625 65.25 C229.48400861 64.19755454 226.92656673 63.11552999 224.375 62 C223.61960937 61.67 222.86421875 61.34 222.0859375 61 C220 60 220 60 217 58 C217 57.34 217 56.68 217 56 C215.845 55.7525 214.69 55.505 213.5 55.25 C208.93858296 54.12593652 205.13226443 52.21371309 201 50 C201 49.34 201 48.68 201 48 C200.113125 47.896875 199.22625 47.79375 198.3125 47.6875 C194.82432483 46.96353911 193.01436253 45.84972246 190 44 C186.7138622 42.54924101 183.35152704 41.2909284 180 40 C178.54273045 39.43160017 177.08571913 38.86253801 175.62890625 38.29296875 C153.4238107 29.02484571 153.4238107 29.02484571 130.36328125 22.55859375 C127.01993206 21.76834758 123.8060276 20.62057849 120.5625 19.5 C115.53629408 17.76970772 110.59574624 16.32284947 105.34375 15.45703125 C103 15 103 15 99.69921875 14.0390625 C95.91772318 12.97688951 92.17976222 12.24359991 88.3125 11.5625 C83.46164126 10.69194759 78.70144675 9.71563206 73.9375 8.4375 C57.81311415 4.31282324 40.94719006 4.18479605 24.4128418 3.32275391 C21.13544768 3.14972305 17.85877922 2.96605718 14.58203125 2.78125 C13.57791702 2.73222534 12.5738028 2.68320068 11.53926086 2.63269043 C10.60696152 2.57923462 9.67466217 2.52577881 8.71411133 2.47070312 C7.89775711 2.42788208 7.08140289 2.38506104 6.24031067 2.34094238 C4 2 4 2 0 0 Z " fill="#FEFEFE" transform="translate(531,0)"/>
<path d="M0 0 C0.33 0 0.66 0 1 0 C1.10546143 1.03592285 1.21092285 2.0718457 1.31958008 3.13916016 C4.83121583 37.52345687 8.731354 70.94097186 19.28515625 104.0390625 C21.60249223 111.31428225 23.66089342 118.47240085 25 126 C25.6443257 129.00535132 26.3229835 132.00178407 27 135 C27.66 135 28.32 135 29 135 C29.43699219 136.34578125 29.43699219 136.34578125 29.8828125 137.71875 C35.87401819 156.11381912 35.87401819 156.11381912 43.84765625 173.703125 C45.06727118 176.13408628 46.07581966 178.59111274 47.0625 181.125 C48.49402956 184.79792844 50.06764619 188.310752 51.875 191.8125 C52.7272177 193.46958998 53.55658024 195.13845958 54.375 196.8125 C57.26270115 202.70822319 60.31912742 208.3371191 63.8984375 213.84375 C65 216 65 216 65 220 C65.66 220 66.32 220 67 220 C67.67154933 221.28913487 68.33708859 222.58140204 69 223.875 C69.37125 224.59429688 69.7425 225.31359375 70.125 226.0546875 C71 228 71 228 71 230 C71.66 230 72.32 230 73 230 C73.67154933 231.28913487 74.33708859 232.58140204 75 233.875 C75.37125 234.59429688 75.7425 235.31359375 76.125 236.0546875 C77 238 77 238 77 240 C77.66 240 78.32 240 79 240 C79.45439453 240.87011719 79.45439453 240.87011719 79.91796875 241.7578125 C81.89612003 245.44630381 83.79732185 248.9647964 86.5625 252.125 C93 259.71794872 93 259.71794872 93 264 C93.66 264 94.32 264 95 264 C96.2175293 265.43359375 96.2175293 265.43359375 97.57421875 267.4375 C98.07332764 268.16372559 98.57243652 268.88995117 99.08666992 269.63818359 C99.61494385 270.41758301 100.14321777 271.19698242 100.6875 272 C104.34007557 277.28515385 107.95833061 282.41021886 112.31640625 287.14453125 C114.34536244 289.38061986 116.22836897 291.71314691 118.125 294.0625 C133.40016933 312.81283518 149.48427595 331.83515473 168.48046875 346.91796875 C170.82913066 348.858801 172.94405909 350.87613313 175.0625 353.0625 C179.36757617 357.49057835 184.11925558 361.2292068 189 365 C189.76570312 365.598125 190.53140625 366.19625 191.3203125 366.8125 C192.81627271 367.9800787 194.31498316 369.14414209 195.81640625 370.3046875 C197.20648932 371.3839291 198.59009391 372.47160587 199.96484375 373.5703125 C213.64012059 384.4370392 228.34643211 395.17321606 244 403 C244 403.66 244 404.32 244 405 C244.57621094 405.11472656 245.15242187 405.22945312 245.74609375 405.34765625 C248.20830217 406.0602885 249.90544863 407.0555778 252.0625 408.4375 C257.23901606 411.62424412 262.5605479 414.48308454 267.9375 417.3125 C269.19929077 417.97946899 269.19929077 417.97946899 270.48657227 418.65991211 C271.28377686 419.07764893 272.08098145 419.49538574 272.90234375 419.92578125 C273.61898193 420.30130127 274.33562012 420.67682129 275.07397461 421.0637207 C277.13539966 422.11755511 277.13539966 422.11755511 280 423 C280 423.66 280 424.32 280 425 C280.78375 425.061875 281.5675 425.12375 282.375 425.1875 C287.35288793 426.3032335 291.52453694 428.60306227 296 431 C296 431.66 296 432.32 296 433 C296.78375 433.061875 297.5675 433.12375 298.375 433.1875 C301.59425239 433.90905657 303.57929167 434.72784899 306.4375 436.25 C312.99353709 439.69367645 319.95652859 441.79304563 327 444 C327 444.66 327 445.32 327 446 C327.969375 446.0825 328.93875 446.165 329.9375 446.25 C332.9377311 446.67237349 335.2805676 447.50159158 338 448.82421875 C343.52272347 451.34498267 349.2237428 452.94163478 355.0625 454.5625 C366.72096345 457.83034774 366.72096345 457.83034774 371.46484375 459.671875 C374.29064834 460.73350324 376.53012349 461.42233245 379.5 461.6875 C380.655 461.790625 381.81 461.89375 383 462 C383 462.66 383 463.32 383 464 C384.03125 463.9175 385.0625 463.835 386.125 463.75 C389.97801877 463.7566317 393.14199099 464.54075377 396.8125 465.6875 C421.53575154 473.14413843 448.25485211 476.0573115 474 477 C474 477.66 474 478.32 474 479 C317.58 479 161.16 479 0 479 C0 320.93 0 162.86 0 0 Z " fill="#FEFEFE" transform="translate(0,545)"/>
<path d="M0 0 C159.06 0 318.12 0 482 0 C482 0.33 482 0.66 482 1 C481.33693848 1.0501123 480.67387695 1.10022461 479.99072266 1.15185547 C472.32439712 1.73586818 464.6617201 2.35856468 457 3 C456.20174805 3.06413086 455.40349609 3.12826172 454.58105469 3.19433594 C432.58527734 5.01446338 410.36220346 9.55022366 389 15 C387.65546805 15.32119558 386.3103983 15.64014689 384.96484375 15.95703125 C377.03560818 17.84462957 369.37837671 20.12054354 361.66796875 22.77734375 C358.03218937 23.98927021 354.38168573 25.04410285 350.6875 26.0625 C345.97469699 27.38502379 341.49656782 28.90002871 336.984375 30.78515625 C332.70864825 32.52566806 328.38858768 34.13947608 324.0625 35.75 C323.22050049 36.06815674 322.37850098 36.38631348 321.51098633 36.71411133 C320.7145874 37.00954834 319.91818848 37.30498535 319.09765625 37.609375 C318.38101807 37.87717773 317.66437988 38.14498047 316.92602539 38.42089844 C315 39 315 39 312 39 C312 39.66 312 40.32 312 41 C310.56445975 41.50559908 309.1264798 42.0042749 307.6875 42.5 C306.88699219 42.7784375 306.08648437 43.056875 305.26171875 43.34375 C303 44 303 44 300 44 C300 44.66 300 45.32 300 46 C298.27398621 46.81917642 296.5440353 47.63006016 294.8125 48.4375 C293.84957031 48.88996094 292.88664062 49.34242187 291.89453125 49.80859375 C289.23368414 50.90381422 286.83215245 51.54954796 284 52 C284 52.66 284 53.32 284 54 C283.32453125 54.24234375 282.6490625 54.4846875 281.953125 54.734375 C281.06109375 55.06953125 280.1690625 55.4046875 279.25 55.75 C277.92742187 56.23726562 277.92742187 56.23726562 276.578125 56.734375 C273.91749578 57.8647064 273.91749578 57.8647064 272.03515625 59.9921875 C269.56689179 62.4272891 267.43710651 63.1809399 264.1875 64.375 C257.11455465 67.17721326 250.72751683 70.97192847 244.25 74.9375 C243.29246826 75.52257324 242.33493652 76.10764648 241.34838867 76.71044922 C235.74123152 80.1830883 230.31636816 83.83033036 224.98730469 87.71704102 C223 89 223 89 221 89 C221 89.66 221 90.32 221 91 C218.69921875 92.69140625 218.69921875 92.69140625 215.6875 94.5625 C214.70136719 95.18253906 213.71523437 95.80257812 212.69921875 96.44140625 C210 98 210 98 207 99 C207 99.66 207 100.32 207 101 C204.9885261 102.53458951 202.96985611 103.96209403 200.875 105.375 C192.43210021 111.22434346 184.75593904 117.85658423 177.10498047 124.69335938 C176.48123535 125.24314453 175.85749023 125.79292969 175.21484375 126.359375 C174.36394165 127.11686035 174.36394165 127.11686035 173.49584961 127.88964844 C172 129 172 129 170 129 C170 129.66 170 130.32 170 131 C168.49609375 132.48046875 168.49609375 132.48046875 166.4375 134.1875 C163.6746132 136.53279758 161.03320243 138.90829405 158.5 141.5 C156.19545205 143.85440596 153.82287627 146.04020011 151.30859375 148.16796875 C146.76609334 152.11819659 142.66055334 156.4089068 138.5625 160.8125 C137.84384766 161.57498047 137.12519531 162.33746094 136.38476562 163.12304688 C132.78765006 166.76995737 132.78765006 166.76995737 130 171 C129.34 171 128.68 171 128 171 C127.75121094 171.56976563 127.50242187 172.13953125 127.24609375 172.7265625 C125.8103822 175.34594845 124.11292544 177.20221644 122.0625 179.375 C102.86546801 200.37845127 85.90960595 225.03323802 71.9934082 249.79077148 C69.33530981 254.49445839 66.45756311 259.01665026 63.4453125 263.5 C61.88428631 266.00682307 61.88428631 266.00682307 60.984375 269.046875 C60.02065354 271.93803938 58.91866925 273.81507075 57.125 276.25 C54.36777365 280.2252244 52.61202607 284.14538453 50.9296875 288.6640625 C50.09555008 290.7599204 49.16542694 292.57569041 48 294.5 C45.96009205 297.9077532 44.55635333 301.44436449 43.12890625 305.14453125 C41.84902829 308.38186963 40.45872833 311.56117162 39.0625 314.75 C36.50705352 320.67194146 34.2787956 326.65738122 32.15625 332.74609375 C30.87422581 336.35395236 29.4678145 339.89341749 27.9921875 343.42578125 C11.56633771 386.04245452 4.24457343 433.68152381 1 479 C0.67 479 0.34 479 0 479 C0 320.93 0 162.86 0 0 Z " fill="#FEFEFE" transform="translate(0,0)"/>
<path d="M0 0 C13.60381425 -0.13896073 27.20745993 -0.2456018 40.8118391 -0.31087303 C47.12880186 -0.34219859 53.44527941 -0.38469565 59.76196289 -0.45263672 C65.85685818 -0.51778275 71.95128651 -0.55369681 78.04650307 -0.56926346 C80.37300278 -0.58035813 82.69947666 -0.60202352 85.02577782 -0.63438034 C88.28231599 -0.67787846 91.53691969 -0.6839366 94.79370117 -0.68115234 C96.23947792 -0.71350983 96.23947792 -0.71350983 97.71446228 -0.746521 C104.10709038 -0.68730188 104.10709038 -0.68730188 106.69135475 1.30189133 C108.98673068 3.99813498 110.78702724 7.06094583 112.3125 10.25 C112.63863281 10.91515625 112.96476563 11.5803125 113.30078125 12.265625 C114 14 114 14 114 16 C114.66 16 115.32 16 116 16 C116 16.66 116 17.32 116 18 C116.66 18 117.32 18 118 18 C118.38671875 18.71285156 118.7734375 19.42570313 119.171875 20.16015625 C122.69989405 26.65276164 122.69989405 26.65276164 126.375 33.0625 C128 36 128 36 128 38 C128.66 38 129.32 38 130 38 C130 38.66 130 39.32 130 40 C130.66 40 131.32 40 132 40 C132.34933594 40.63808594 132.69867187 41.27617188 133.05859375 41.93359375 C133.51363281 42.75988281 133.96867188 43.58617187 134.4375 44.4375 C135.11619141 45.67306641 135.11619141 45.67306641 135.80859375 46.93359375 C136.83662397 48.92308798 136.83662397 48.92308798 138 50 C138.04063832 51.66617115 138.042721 53.33388095 138 55 C137.175 55.391875 136.35 55.78375 135.5 56.1875 C134.345 56.785625 133.19 57.38375 132 58 C131.32710937 58.30550781 130.65421875 58.61101563 129.9609375 58.92578125 C125.27286284 61.34005191 123.42576635 63.50085759 121.625 68.5 C121.07473976 70.33077239 120.53283844 72.16408141 120 74 C119.35160875 75.67386111 118.69040574 77.34302621 118 79 C118.95519531 78.41992188 119.91039062 77.83984375 120.89453125 77.2421875 C142.77749447 64 142.77749447 64 146 64 C147.1574707 65.43359375 147.1574707 65.43359375 148.42578125 67.4375 C149.12670898 68.53384766 149.12670898 68.53384766 149.84179688 69.65234375 C150.32712891 70.42707031 150.81246094 71.20179688 151.3125 72 C151.78623047 72.74378906 152.25996094 73.48757813 152.74804688 74.25390625 C153.70019236 75.75180954 154.64697812 77.25313319 155.58837891 78.7578125 C156.53504461 80.26147521 157.495903 81.75628914 158.47021484 83.2421875 C158.92734863 83.94601562 159.38448242 84.64984375 159.85546875 85.375 C160.26821045 86.00148438 160.68095215 86.62796875 161.10620117 87.2734375 C162 89 162 89 162 92 C161.49210938 92.24234375 160.98421875 92.4846875 160.4609375 92.734375 C157.12830536 94.35700488 154.01928559 95.98701174 150.9375 98.0625 C148 100 148 100 144.73828125 101.359375 C139.76718669 103.43855244 135.40619666 106.44134983 130.890625 109.35546875 C128 111 128 111 125 111 C125 111.66 125 112.32 125 113 C124.34257813 113.30550781 123.68515625 113.61101562 123.0078125 113.92578125 C115.41774457 117.57683019 108.32332952 121.76451137 101.23291016 126.30395508 C94.39751755 130.60658392 94.39751755 130.60658392 90 131 C89.67 131.99 89.34 132.98 89 134 C86.93359375 134.94921875 86.93359375 134.94921875 84.4375 135.6875 C83.19806641 136.06455078 83.19806641 136.06455078 81.93359375 136.44921875 C80.97646484 136.72185547 80.97646484 136.72185547 80 137 C79.67 138.65 79.34 140.3 79 142 C78.34 142 77.68 142 77 142 C77 142.66 77 143.32 77 144 C75.68870078 145.35500919 74.35308313 146.68671343 73 148 C72.34 148.99 71.68 149.98 71 151 C70.4225 150.690625 69.845 150.38125 69.25 150.0625 C66.23694326 148.6342833 66.23694326 148.6342833 63 148 C60.03256812 149.17169881 60.03256812 149.17169881 56.9375 151 C55.7928125 151.64453125 54.648125 152.2890625 53.46875 152.953125 C44.95580958 157.92207456 44.95580958 157.92207456 36.92578125 163.6171875 C34.51727096 165.34662491 31.94036583 166.13672075 29.15625 167.09765625 C26.09178265 168.38006922 23.5245218 170.24121016 20.859375 172.20703125 C19 173 19 173 17.03125 172.3984375 C14.63707046 170.75013697 12.76026983 168.91315966 10.75 166.8125 C7.21344348 163.18840495 3.58021146 159.7905505 -0.2734375 156.5078125 C-1.93380486 155.05780842 -3.53313669 153.64684654 -5 152 C-5 151.34 -5 150.68 -5 150 C-4.34 150 -3.68 150 -3 150 C-3 149.34 -3 148.68 -3 148 C-1.96101563 147.49210938 -0.92203125 146.98421875 0.1484375 146.4609375 C7.01865939 143.07950016 13.78196856 139.6692291 20.30078125 135.640625 C23.88970672 133.45922312 27.53283755 131.38138939 31.1875 129.3125 C31.85330078 128.9316626 32.51910156 128.5508252 33.20507812 128.15844727 C37.37516873 125.80525061 41.56680086 123.81122922 46 122 C45.64947365 118.84526281 45.13480924 117.1766466 43.1875 114.625 C41.20292256 112.79841461 41.20292256 112.79841461 39.125 113.0625 C36.36575952 114.27981197 33.68564473 115.62860694 31 117 C30.01 117.33 29.02 117.66 28 118 C27.72285156 116.78441406 27.44570313 115.56882812 27.16015625 114.31640625 C26.79446102 112.73172693 26.42856525 111.14709388 26.0625 109.5625 C25.88009766 108.76005859 25.69769531 107.95761719 25.50976562 107.13085938 C24.90338992 103.25047271 24.90338992 103.25047271 23 100 C22.50292991 97.39786802 22.05097547 94.80137696 21.625 92.1875 C19.92364655 79.50824289 19.92364655 79.50824289 15 68 C14.52929688 65.99462891 14.52929688 65.99462891 14.21875 63.7265625 C14.09886719 62.9015625 13.97898437 62.0765625 13.85546875 61.2265625 C13.73816406 60.36804688 13.62085938 59.50953125 13.5 58.625 C12.78790643 53.46036531 12.12743616 48.80192733 10 44 C9.68958797 42.61243171 9.42001015 41.21522607 9.1875 39.8125 C8.24453395 34.81328317 6.93781672 29.95599824 5.5625 25.0625 C5.23378906 23.89098389 5.23378906 23.89098389 4.8984375 22.69580078 C3.94629125 19.31724016 2.98328556 15.94222331 2.0078125 12.5703125 C1.73710937 11.61898437 1.46640625 10.66765625 1.1875 9.6875 C0.95417969 8.88699219 0.72085937 8.08648438 0.48046875 7.26171875 C-0.04584194 4.78420747 -0.03216046 2.52603383 0 0 Z " fill="#8DB25A" transform="translate(482,513)"/>
<path d="M0 0 C0 0.66 0 1.32 0 2 C0.63808594 2.12117187 1.27617188 2.24234375 1.93359375 2.3671875 C3.17302734 2.61855469 3.17302734 2.61855469 4.4375 2.875 C5.26121094 3.03742187 6.08492187 3.19984375 6.93359375 3.3671875 C7.95646484 3.68042969 7.95646484 3.68042969 9 4 C9.495 4.99 9.495 4.99 10 6 C10.75023437 6.44859375 11.50046875 6.8971875 12.2734375 7.359375 C19.0994173 11.46669809 24.58973412 17.36749138 27 25 C27.27457031 25.67933594 27.54914063 26.35867188 27.83203125 27.05859375 C31.86848102 37.9883413 31.42693668 51.27521887 27 62 C26.34 62 25.68 62 25 62 C24.8659375 62.57492187 24.731875 63.14984375 24.59375 63.7421875 C24.01660512 65.93685684 23.30612504 68.00489116 22.5 70.125 C22.2421875 70.80820312 21.984375 71.49140625 21.71875 72.1953125 C21 74 21 74 20 76 C19.34 76 18.68 76 18 76 C17.7215625 77.175625 17.7215625 77.175625 17.4375 78.375 C15.78217916 82.54928734 13.52545951 85.70335344 10.90234375 89.32421875 C9.11952439 91.83188048 7.48819213 94.38107711 5.875 97 C1.06782079 104.65628542 -4.35111507 111.89235653 -9.69067383 119.18164062 C-10.82922572 120.76283297 -11.91919266 122.37878899 -13 124 C-16.61497739 122.52841629 -18.40591511 120.58537669 -20.75 117.5 C-21.36359375 116.7059375 -21.9771875 115.911875 -22.609375 115.09375 C-24 113 -24 113 -24 111 C-24.66 111 -25.32 111 -26 111 C-26.33 109.68 -26.66 108.36 -27 107 C-27.66 107 -28.32 107 -29 107 C-29.515625 105.88625 -30.03125 104.7725 -30.5625 103.625 C-32.18057398 100.38321415 -33.9983502 97.49355634 -36.125 94.5625 C-39.41528633 89.97883978 -42.33016692 85.2347867 -45.1875 80.375 C-45.81132568 79.31841187 -45.81132568 79.31841187 -46.44775391 78.24047852 C-56.1892958 61.53874333 -61.1611765 47.84761317 -56.96875 28.5546875 C-54.33132822 18.87705114 -48.56927073 11.31470555 -39.921875 6.16796875 C-31.83972482 2 -31.83972482 2 -28 2 C-28 1.34 -28 0.68 -28 0 C-18.89964122 -2.91211481 -9.00087597 -3.44714399 0 0 Z " fill="#FBFDFA" transform="translate(566,526)"/>
<path d="M0 0 C-0.29038459 6.6933649 -1.65042572 12.18092514 -4.08984375 18.40625 C-4.90637862 20.73319914 -5.33493763 22.68475667 -5.5625 25.125 C-5.91012265 28.20394345 -6.3496451 30.26384446 -7.3671875 33.1015625 C-9.07737609 38.08490023 -10.34000001 43.12861202 -11.5625 48.25 C-12.34127493 51.50976378 -13.14856887 54.75846944 -14 58 C-14.24363281 58.96164062 -14.48726562 59.92328125 -14.73828125 60.9140625 C-16.6773774 64.11987471 -19.19123048 64.77943293 -22.625 66.125 C-23.26018555 66.37942871 -23.89537109 66.63385742 -24.54980469 66.89599609 C-26.35929219 67.61581522 -28.17941141 68.30873899 -30 69 C-30.77601563 69.2990625 -31.55203125 69.598125 -32.3515625 69.90625 C-34.22948054 70.61723131 -36.11473482 71.3087361 -38 72 C-43.78578904 74.24424223 -49.47671713 76.61696271 -55.08984375 79.265625 C-57 80 -57 80 -60 80 C-60 80.66 -60 81.32 -60 82 C-63.2479764 83.42910961 -66.41959954 84.80734606 -69.7890625 85.92578125 C-73.3238437 87.10834187 -76.78908599 88.4323235 -80.25 89.8125 C-81.23299072 90.20127319 -81.23299072 90.20127319 -82.23583984 90.59790039 C-86.95786482 92.49678681 -91.43223338 94.67954441 -95.8515625 97.21484375 C-98.57569446 98.21039016 -100.25040924 97.77663879 -103 97 C-103.33 95.68 -103.66 94.36 -104 93 C-104.66 93 -105.32 93 -106 93 C-108.875 86.375 -108.875 86.375 -110 83 C-110.66 83 -111.32 83 -112 83 C-113.40557304 80.96176988 -114.68539281 78.94223094 -115.9375 76.8125 C-116.28490234 76.23435547 -116.63230469 75.65621094 -116.99023438 75.06054688 C-118.00000756 73.37759157 -119.00014385 71.68886592 -120 70 C-120.86818359 68.61361328 -120.86818359 68.61361328 -121.75390625 67.19921875 C-123 65 -123 65 -123 63 C-123.66 63 -124.32 63 -125 63 C-125.33 61.68 -125.66 60.36 -126 59 C-126.66 59 -127.32 59 -128 59 C-128.67667998 57.75539217 -129.34094719 56.50403104 -130 55.25 C-130.37125 54.55390625 -130.7425 53.8578125 -131.125 53.140625 C-132 51 -132 51 -132 47 C-128.95891001 45.8734369 -125.91702595 44.74903305 -122.875 43.625 C-122.0190625 43.30789063 -121.163125 42.99078125 -120.28125 42.6640625 C-107.64941406 38 -107.64941406 38 -104 38 C-104 37.34 -104 36.68 -104 36 C-103.34628418 35.78384033 -102.69256836 35.56768066 -102.01904297 35.3449707 C-81.64878966 28.94262576 -81.64878966 28.94262576 -61.8203125 21.109375 C-56.58938857 18.759702 -51.23265417 16.8630791 -45.8125 15 C-44.30272583 14.47780884 -44.30272583 14.47780884 -42.76245117 13.94506836 C-33.93746749 10.92176642 -25.06179333 8.22760075 -16 6 C-16 5.34 -16 4.68 -16 4 C-13.89748139 3.32815382 -11.79292237 2.66269032 -9.6875 2 C-8.51574219 1.62875 -7.34398437 1.2575 -6.13671875 0.875 C-3 0 -3 0 0 0 Z " fill="#8BB256" transform="translate(772,524)"/>
<path d="M0 0 C4.04412069 0.84252514 5.97987404 2.86190603 9 5.625 C9.78375 6.058125 10.5675 6.49125 11.375 6.9375 C13.97815125 8.61095437 15.74038185 10.33757108 17.875 12.5625 C20.34343785 15.10996505 22.55276922 17.14610716 25.6875 18.8125 C29.19531591 20.73187097 31.21379577 22.77400032 34 25.625 C36.46938392 27.66382467 38.97954607 29.64476576 41.49609375 31.625 C43.69889651 33.384493 45.82502077 35.19670094 47.9375 37.0625 C50.77283744 39.75275961 50.77283744 39.75275961 54 40.625 C55.6939482 42.26393107 57.35595737 43.93601232 59 45.625 C61.10681783 47.54582046 63.26885107 49.399497 65.4375 51.25 C66.04658203 51.77070068 66.65566406 52.29140137 67.28320312 52.82788086 C74.33791031 58.81767528 81.64068408 64.47964326 88.95947266 70.140625 C90.91282033 71.65326382 92.86269982 73.17029295 94.8125 74.6875 C95.41771484 75.15293213 96.02292969 75.61836426 96.64648438 76.09790039 C100.88723477 79.39946953 100.88723477 79.39946953 102 81.625 C102.40820726 85.29886532 102.24841035 87.17786137 100.4375 90.4375 C98 92.625 98 92.625 94.9375 93.875 C85.80187131 93.29496008 78.98724085 85.92158155 72.62451172 79.89013672 C68.06272525 75.58642624 63.1885808 71.82089116 58.1875 68.046875 C52.54669254 63.78875327 46.82924123 59.46445509 41.8359375 54.453125 C40.05341775 52.52929941 40.05341775 52.52929941 37.6875 51.25 C34.14763427 49.10961607 30.88076526 46.60538827 28 43.625 C28 42.965 28 42.305 28 41.625 C27.43152344 41.53089844 26.86304688 41.43679688 26.27734375 41.33984375 C23.44965293 40.45224955 21.83347725 39.0908317 19.5625 37.1875 C18.69238281 36.47980469 17.82226562 35.77210938 16.92578125 35.04296875 C15.39940313 33.78151607 13.87433087 32.5183182 12.36474609 31.23681641 C10.67429108 29.80613203 8.96383221 28.4025398 7.25 27 C6.71963135 26.53795166 6.1892627 26.07590332 5.64282227 25.59985352 C3.91454641 24.12998407 3.91454641 24.12998407 1 22.625 C-4.36137041 23.31361638 -7.71101324 26.61494352 -11.5625 30.125 C-16.11334918 34.15347191 -20.70542417 38.0332203 -25.5625 41.6875 C-29.97222198 45.01847456 -34.24182183 48.46557016 -38.4375 52.0625 C-42.91801178 55.90284179 -47.47153724 59.62098413 -52.125 63.25 C-59.53470472 69.03301135 -66.87842441 74.87256063 -73.9453125 81.07421875 C-74.96733765 81.96971436 -74.96733765 81.96971436 -76.01000977 82.88330078 C-77.36106007 84.07091369 -78.70802897 85.26318849 -80.05053711 86.46044922 C-84.78083584 90.625 -84.78083584 90.625 -87 90.625 C-87.33 91.615 -87.66 92.605 -88 93.625 C-95.91470588 94.23382353 -95.91470588 94.23382353 -99.5625 92.1875 C-101.73938664 88.30696294 -101.97013337 84.95777612 -101 80.625 C-98.31537705 75.89792304 -95.14585362 73.34028454 -90 71.625 C-89.34 70.635 -88.68 69.645 -88 68.625 C-86.515 68.13 -86.515 68.13 -85 67.625 C-82.38401497 65.14669839 -79.92392344 62.54521239 -77.4375 59.9375 C-74.24664482 56.91027842 -72.41049653 55.625 -68 55.625 C-68 42.425 -68 29.225 -68 15.625 C-60.41 15.625 -52.82 15.625 -45 15.625 C-45 21.565 -45 27.505 -45 33.625 C-43.35 32.243125 -41.7 30.86125 -40 29.4375 C-36.56941347 26.61413615 -33.20030125 24.01040528 -29.375 21.75 C-25.7641961 19.97478266 -25.7641961 19.97478266 -25 16.625 C-23.2578125 15.125 -23.2578125 15.125 -21.125 13.625 C-19.0608926 12.16260656 -17.16597355 10.79298292 -15.38671875 8.9921875 C-14 7.625 -14 7.625 -11.6875 6.75 C-8.75641703 5.69502461 -8.75641703 5.69502461 -6.0625 3 C-3 0.625 -3 0.625 0 0 Z " fill="#FAFCF8" transform="translate(453,319.375)"/>
<path d="M0 0 C1.55129505 2.1059646 2.87648775 4.12755043 4.1875 6.375 C4.55552734 6.97828125 4.92355469 7.5815625 5.30273438 8.203125 C8 12.70690805 8 12.70690805 8 15 C8.66 15 9.32 15 10 15 C12.04169485 17.90548882 13 19.40142046 13 23 C13.66 23 14.32 23 15 23 C16.7265625 25.5546875 16.7265625 25.5546875 18.625 28.875 C19.57246094 30.51082031 19.57246094 30.51082031 20.5390625 32.1796875 C22 35 22 35 22 37 C22.66 37 23.32 37 24 37 C36 53.17128463 36 53.17128463 36 59 C36.66 59 37.32 59 38 59 C39.5859375 61.16015625 39.5859375 61.16015625 41.375 64.0625 C41.99246094 65.0628125 42.60992188 66.063125 43.24609375 67.09375 C43.82488281 68.0528125 44.40367187 69.011875 45 70 C45.44472656 70.7321875 45.88945313 71.464375 46.34765625 72.21875 C49 76.70586918 49 76.70586918 49 79 C49.66 79 50.32 79 51 79 C52.47309111 81.10019014 53.81309635 83.17767729 55.125 85.375 C55.49753906 85.97828125 55.87007812 86.5815625 56.25390625 87.203125 C59 91.72965316 59 91.72965316 59 94 C48.72922205 94.29733697 38.45822901 94.57777118 28.18608093 94.82377625 C23.49976923 94.93617516 18.81445233 95.06570387 14.12890625 95.20703125 C12.35680801 95.24401417 10.58467479 95.27938813 8.8125 95.3125 C8.03229492 95.34214844 7.25208984 95.37179687 6.44824219 95.40234375 C3.12764954 95.43912004 1.47285709 95.45056127 -0.98828125 93.10546875 C-2 91 -2 91 -2 89 C-2.66 89 -3.32 89 -4 89 C-5.39818654 86.91904721 -6.68337637 84.85287677 -7.9375 82.6875 C-10.97625989 77.47038019 -10.97625989 77.47038019 -15 73 C-15.4125 72.29875 -15.825 71.5975 -16.25 70.875 C-17.83782423 68.26643162 -19.53680203 66.00796462 -21.4375 63.625 C-23.61162309 60.87873926 -25.56484753 58.19601144 -27.25 55.125 C-28.70461659 52.52747038 -29.89550629 50.99926903 -32 49 C-32 48.34 -32 47.68 -32 47 C-32.66 47 -33.32 47 -34 47 C-34.41121094 46.12601563 -34.82242188 45.25203125 -35.24609375 44.3515625 C-36.95298473 41.08984209 -38.85019583 38.31095507 -41.0625 35.375 C-43.34937389 32.33435203 -45.42717754 29.47161849 -47 26 C-39.43557722 20.96451147 -31.94964363 16.33888726 -23.7421875 12.3984375 C-20.35304042 10.67006905 -17.29414019 8.61517146 -14.16796875 6.45703125 C-4.56032172 0 -4.56032172 0 0 0 Z " fill="#86AF55" transform="translate(652,614)"/>
<path d="M0 0 C1.875 0.625 1.875 0.625 4 2 C4.69100553 3.99172182 5.35902703 5.99161804 6 8 C6.99 8.33 7.98 8.66 9 9 C10.75390625 11.328125 10.75390625 11.328125 12.5625 14.25 C13.16191406 15.20390625 13.76132812 16.1578125 14.37890625 17.140625 C15.84021986 19.71817093 16.98139741 22.22291433 18 25 C18.66 25 19.32 25 20 25 C21.26171875 26.6171875 21.26171875 26.6171875 22.6875 28.875 C28.94696095 38.57489105 35.73978202 47.91014099 42.6171875 57.1796875 C46 61.78566384 46 61.78566384 46 64 C33.66201791 64.87236118 21.34891449 65.28193526 8.98535156 65.55224609 C-2.39310972 65.80607896 -2.39310972 65.80607896 -13.75390625 66.46484375 C-64.74334769 70.31518708 -64.74334769 70.31518708 -75.16479492 61.42163086 C-79.01874783 57.29242783 -82.20177575 53.39467274 -84 48 C-79.60546875 45.55859375 -75.2109375 43.1171875 -70.81640625 40.67578125 C-69.62289551 40.01219604 -69.62289551 40.01219604 -68.40527344 39.33520508 C-66.81076748 38.45006977 -65.21507498 37.56706831 -63.61816406 36.6862793 C-58.20366327 33.69552628 -52.89199326 30.56116904 -47.6015625 27.35546875 C-45 26 -45 26 -42 26 C-42 25.34 -42 24.68 -42 24 C-39.7265625 22.44921875 -39.7265625 22.44921875 -36.625 20.6875 C-35.52542969 20.06230469 -34.42585937 19.43710937 -33.29296875 18.79296875 C-29.74580971 16.86159746 -26.14510951 15.08533086 -22.51171875 13.32421875 C-18.71897791 11.32462444 -15.19163298 8.94824322 -11.640625 6.55078125 C-8.83164724 4.90113011 -6.09250044 3.99185238 -3 3 C-1.16310524 1.50113129 -1.16310524 1.50113129 0 0 Z " fill="#86AE56" transform="translate(593,646)"/>
<path d="M0 0 C17.74136113 -0.25713297 35.48223782 -0.45101829 53.22506046 -0.56993389 C61.46374412 -0.62662047 69.70126914 -0.70387739 77.93920898 -0.82983398 C85.12076912 -0.93958624 92.3014902 -1.0104652 99.48386568 -1.03497344 C103.2863167 -1.04929828 107.08636783 -1.08287033 110.88804817 -1.16303062 C114.47000417 -1.23794301 118.04858352 -1.26068584 121.63124847 -1.24418449 C123.56622524 -1.24863458 125.50083703 -1.30771907 127.43486023 -1.36862183 C130.95357483 -1.32284643 133.68048242 -1.17654449 137 0 C140.1544978 3.31773869 142.02691995 6.90257364 144 11 C144.78891327 12.16219883 145.59686679 13.31214402 146.4375 14.4375 C148 17 148 17 148 21 C148.66 21 149.32 21 150 21 C154 27.625 154 27.625 154 31 C98.23 31 42.46 31 -15 31 C-14.24872886 27.24364431 -13.75994274 25.16789693 -12 22 C-11.34 22 -10.68 22 -10 22 C-9.89365234 20.77410156 -9.89365234 20.77410156 -9.78515625 19.5234375 C-8.77901135 15.00829968 -6.77283032 11.58039867 -4.4375 7.625 C-3.80038086 6.52091797 -3.80038086 6.52091797 -3.15039062 5.39453125 C-2.10843859 3.59160301 -1.05533146 1.79512947 0 0 Z " fill="#FAFCF8" transform="translate(599,379)"/>
<path d="M0 0 C0 0.66 0 1.32 0 2 C0.556875 2.2475 1.11375 2.495 1.6875 2.75 C9.57835808 7.01532869 12.12401429 13.2653694 15.3125 21.3125 C16.87319748 29.68351375 16.54571204 37.88554286 14 46 C13.34 46 12.68 46 12 46 C12 47.32 12 48.64 12 50 C10.25 51.9375 10.25 51.9375 8 54 C7.401875 54.825 6.80375 55.65 6.1875 56.5 C3.5283563 59.53902137 0.54648265 61.20362944 -3 63 C-4.03125 63.556875 -5.0625 64.11375 -6.125 64.6875 C-13.86184196 68.21953655 -23.8983226 68.29443189 -31.9375 65.6875 C-33.30118464 65.1484844 -34.65678384 64.58817001 -36 64 C-37.03125 63.5875 -38.0625 63.175 -39.125 62.75 C-44.49707753 59.48003977 -49.29834627 55.23939701 -51 49 C-51.66 49 -52.32 49 -53 49 C-56.71375086 38.57165496 -59.39242995 29.71490479 -54.6875 19.25 C-54.22085937 18.34121094 -53.75421875 17.43242188 -53.2734375 16.49609375 C-51.84973741 13.86940354 -51.84973741 13.86940354 -50.8125 10.3125 C-46.69637382 2.78992456 -39.96548185 -1.04121335 -31.9375 -3.5 C-20.92782679 -6.17225078 -10.16565959 -5.55368576 0 0 Z " fill="#FBFCFA" transform="translate(463,810)"/>
<path d="M0 0 C1.26070312 0.0009668 1.26070312 0.0009668 2.546875 0.00195312 C6.06428554 0.02723803 8.7576326 0.0650442 12.125 1.1875 C12.125 1.8475 12.125 2.5075 12.125 3.1875 C13.18267578 3.28417969 13.18267578 3.28417969 14.26171875 3.3828125 C18.06598541 4.45195156 20.0471062 6.39265834 22.9375 9.0625 C23.91332031 9.94679688 24.88914062 10.83109375 25.89453125 11.7421875 C28.125 14.1875 28.125 14.1875 28.125 17.1875 C28.785 17.1875 29.445 17.1875 30.125 17.1875 C34.00256736 27.13430322 36.37647627 37.19004582 32.375 47.5625 C28.42650884 56.22147185 22.53093391 63.50647045 14.125 68.1875 C13.135 68.1875 12.145 68.1875 11.125 68.1875 C11.125 68.8475 11.125 69.5075 11.125 70.1875 C2.20122413 72.66224426 -9.95476146 72.89475428 -18.1328125 68.3125 C-18.99519531 67.755625 -18.99519531 67.755625 -19.875 67.1875 C-21.421875 66.32125 -21.421875 66.32125 -23 65.4375 C-28.55585952 61.08943603 -33.30659581 55.83513438 -35.875 49.1875 C-35.875 47.8675 -35.875 46.5475 -35.875 45.1875 C-36.535 45.1875 -37.195 45.1875 -37.875 45.1875 C-38.32730384 31.83616076 -38.27749984 21.01297427 -29.046875 10.41796875 C-20.35817603 1.49486243 -12.22588473 -0.18319543 0 0 Z " fill="#FBFDFB" transform="translate(663.875,805.8125)"/>
<path d="M0 0 C6.10754783 1.90235096 11.82775331 4.19253361 17.6171875 6.9140625 C20.06555292 8.08055484 20.06555292 8.08055484 23 9 C23.33 9.66 23.66 10.32 24 11 C25.90135452 11.92613814 25.90135452 11.92613814 28.25 12.75 C33.62561522 14.80742971 38.81202821 17.1844615 44.01953125 19.6328125 C46.65366198 20.84112935 49.29900379 21.95155415 52 23 C52 23.66 52 24.32 52 25 C52.721875 25.12375 53.44375 25.2475 54.1875 25.375 C57.08066338 26.0179252 59.3786305 26.60441312 62 28 C63.1784668 30.42333984 63.1784668 30.42333984 63.94921875 33.4609375 C64.38524414 35.12962891 64.38524414 35.12962891 64.83007812 36.83203125 C65.11302734 38.00121094 65.39597656 39.17039062 65.6875 40.375 C65.98205078 41.50550781 66.27660156 42.63601563 66.58007812 43.80078125 C68.2360258 50.29805011 69.5062643 56.77539722 70.54614258 63.39648438 C71.09739577 66.5587028 71.96499403 69.52621295 73 72.5625 C75.37376171 79.94064739 77.16685787 87.2132996 77 95 C76.01 95 75.02 95 74 95 C74 95.66 74 96.32 74 97 C69.58550836 97.38317468 67.28903746 96.31551842 63.5625 94 C62.00402344 93.05253906 62.00402344 93.05253906 60.4140625 92.0859375 C59.58890137 91.57885254 59.58890137 91.57885254 58.74707031 91.06152344 C55.67522439 89.19506367 52.55645373 87.41121726 49.4375 85.625 C48.84203369 85.27953125 48.24656738 84.9340625 47.63305664 84.578125 C45.10269149 83.12410107 42.778615 81.926205 40 81 C40 80.34 40 79.68 40 79 C38.68 78.67 37.36 78.34 36 78 C36 77.34 36 76.68 36 76 C34.7625 75.62875 34.7625 75.62875 33.5 75.25 C22.69565217 71.39130435 22.69565217 71.39130435 21 68 C18.68895182 66.94952356 16.35416349 65.94992562 14 65 C13.34 64.67 12.68 64.34 12 64 C11.34462029 61.46288611 10.81348126 58.98701585 10.34375 56.4140625 C10.19595093 55.64250824 10.04815186 54.87095398 9.89587402 54.07601929 C9.42242993 51.59381327 8.96112925 49.10952015 8.5 46.625 C8.18958744 44.98813212 7.87839842 43.35141128 7.56640625 41.71484375 C6.14580092 34.23436247 4.74654032 26.75330465 3.50976562 19.23974609 C2.9305389 16.69481029 1.97470042 14.41760076 1 12 C0.72123482 9.9040014 0.51411256 7.79737389 0.375 5.6875 C0.26285156 4.08455078 0.26285156 4.08455078 0.1484375 2.44921875 C0.09945313 1.64097656 0.05046875 0.83273437 0 0 Z " fill="#8CB358" transform="translate(422,543)"/>
<path d="M0 0 C51.81 0 103.62 0 157 0 C155.49229166 3.01541669 153.0250386 3.84436727 150 5 C139.66363636 8 139.66363636 8 135 8 C135 8.66 135 9.32 135 10 C134.04222656 10.31751221 133.08445312 10.63502441 132.09765625 10.9621582 C128.51136117 12.15151224 124.92575012 13.34291719 121.34033203 14.53491211 C119.79461669 15.04848434 118.24872152 15.56151568 116.70263672 16.07397461 C114.46793771 16.81478671 112.23391355 17.55760443 110 18.30078125 C108.97918335 18.63847282 108.97918335 18.63847282 107.93774414 18.98298645 C104.50220625 20.12803471 101.11930969 21.34035199 97.75 22.66870117 C94 24 94 24 90 24 C90 24.66 90 25.32 90 26 C88.7934375 26.39832031 87.586875 26.79664063 86.34375 27.20703125 C84.72913954 27.74210565 83.11455773 28.27726652 81.5 28.8125 C80.70851563 29.07353516 79.91703125 29.33457031 79.1015625 29.60351562 C72.61306187 31.7574851 66.23197614 34.13279788 59.859375 36.60546875 C58.48958333 37.1328125 57.11979167 37.66015625 55.75 38.1875 C55.05648437 38.46013672 54.36296875 38.73277344 53.6484375 39.01367188 C50.17682901 40.34046478 47.76835684 41 44 41 C44 41.66 44 42.32 44 43 C42.08594633 43.67413211 40.16863974 44.3390332 38.25 45 C37.18265625 45.37125 36.1153125 45.7425 35.015625 46.125 C32 47 32 47 28 47 C26.2890625 44.9453125 26.2890625 44.9453125 24.625 42.125 C23.72201172 40.62259766 23.72201172 40.62259766 22.80078125 39.08984375 C22.20652344 38.07019531 21.61226562 37.05054688 21 36 C19.93898286 34.22827779 18.87658421 32.45738184 17.8125 30.6875 C17.33167969 29.87410156 16.85085938 29.06070313 16.35546875 28.22265625 C15.17917253 26.29380164 13.93720886 24.4620924 12.625 22.625 C11 20 11 20 11 16 C10.01 15.67 9.02 15.34 8 15 C8 14.34 8 13.68 8 13 C7.01 12.67 6.02 12.34 5 12 C3.61328125 10.29296875 3.61328125 10.29296875 2.3125 8.1875 C1.87550781 7.50042969 1.43851563 6.81335938 0.98828125 6.10546875 C0 4 0 4 0 0 Z " fill="#8CB255" transform="translate(603,514)"/>
<path d="M0 0 C2.61823055 7.35299478 4.42837049 14.76148165 6.125 22.375 C6.64719689 24.69559202 7.17057789 27.01591799 7.6953125 29.3359375 C7.92234863 30.35220215 8.14938477 31.3684668 8.38330078 32.41552734 C8.98229001 35.09253998 8.98229001 35.09253998 10 38 C10.07029121 40.57265818 10.09370832 43.11641431 10.0625 45.6875 C10.05798828 46.38939453 10.05347656 47.09128906 10.04882812 47.81445312 C10.03706927 49.54300538 10.01913454 51.27151365 10 53 C10.66 53 11.32 53 12 53 C12.50643553 55.22771342 13.0048962 57.45724076 13.5 59.6875 C13.7784375 60.92886719 14.056875 62.17023437 14.34375 63.44921875 C14.89354126 66.42398218 15.13795705 68.99368602 15 72 C14.32582031 72.21785156 13.65164063 72.43570313 12.95703125 72.66015625 C9.08785299 74.41329779 6.02769051 76.83893808 2.6875 79.4375 C-3.07880898 83.84076517 -8.90622964 88.1245966 -14.875 92.25 C-15.55860596 92.72751709 -16.24221191 93.20503418 -16.9465332 93.69702148 C-21.75759263 97 -21.75759263 97 -24 97 C-27.96482507 81.48714073 -27.96482507 81.48714073 -29 75.8125 C-29.72976108 71.90729206 -30.84434774 68.21857476 -32.0625 64.4375 C-33.72431398 59.22348142 -34.63038245 54.45185881 -35 49 C-35.66 49 -36.32 49 -37 49 C-37.79391085 45.54217801 -38.58470512 42.08365006 -39.375 38.625 C-39.70757812 37.17673828 -39.70757812 37.17673828 -40.046875 35.69921875 C-42.06908686 26.83717266 -43.99549655 18.04053108 -45 9 C-44.12859375 8.75765625 -43.2571875 8.5153125 -42.359375 8.265625 C-36.48609299 6.61296989 -30.6883393 4.92282229 -24.9375 2.875 C-16.76085313 0.10566712 -8.55320421 -1.77447072 0 0 Z " fill="#8DB257" transform="translate(407,536)"/>
<path d="M0 0 C5.81316339 0.29065817 10.13978949 3.07307323 15 6 C15 6.66 15 7.32 15 8 C15.680625 8.268125 16.36125 8.53625 17.0625 8.8125 C20.39710809 10.16053306 23.69743237 11.57536298 27 13 C27 13.66 27 14.32 27 15 C27.70898438 15.09410156 28.41796875 15.18820312 29.1484375 15.28515625 C32.5004091 16.12544502 34.74942313 17.5323313 37.625 19.4375 C38.56601562 20.05496094 39.50703125 20.67242188 40.4765625 21.30859375 C41.30929687 21.86675781 42.14203125 22.42492187 43 23 C43.99 23.66 44.98 24.32 46 25 C46 25.66 46 26.32 46 27 C47.11375 26.9071875 47.11375 26.9071875 48.25 26.8125 C51.47519908 27.03239994 52.69723426 27.78252188 55 30 C55 30.66 55 31.32 55 32 C54.23816406 32.30292969 53.47632813 32.60585938 52.69140625 32.91796875 C46.87125042 35.2794552 41.33032107 37.7568533 35.9375 40.984375 C33.96518038 42.01825222 32.17418584 42.55351541 30 43 C30 43.66 30 44.32 30 45 C29.01 45 28.02 45 27 45 C27 45.66 27 46.32 27 47 C23.26118036 49.60584399 19.1723413 51.21185373 15 53 C14.0925 53.556875 13.185 54.11375 12.25 54.6875 C10 56 10 56 7 56 C7 56.66 7 57.32 7 58 C6.26136719 58.36351562 5.52273438 58.72703125 4.76171875 59.1015625 C-3.14019718 63.01737852 -10.94029994 67.08359195 -18.58203125 71.48828125 C-19.37996094 71.94589844 -20.17789062 72.40351562 -21 72.875 C-21.70125 73.28492188 -22.4025 73.69484375 -23.125 74.1171875 C-25 75 -25 75 -28 75 C-28.23710693 74.03586182 -28.47421387 73.07172363 -28.71850586 72.07836914 C-29.59646047 68.512381 -30.47903658 64.94755038 -31.36303711 61.38305664 C-31.7454915 59.83812296 -32.12668011 58.29287537 -32.5065918 56.74731445 C-33.05187362 54.52992982 -33.60164986 52.31370209 -34.15234375 50.09765625 C-34.3221727 49.4028566 -34.49200165 48.70805695 -34.66697693 47.99220276 C-35.28628207 44.72223108 -35.28628207 44.72223108 -37 42 C-38.23944679 37.66813346 -39.02725792 33.51391161 -39 29 C-37.31020416 25.98801303 -34.94483536 24.69535416 -32 23 C-30.39460914 21.87674763 -28.79044244 20.75174363 -27.1875 19.625 C-23.27692308 17 -23.27692308 17 -21 17 C-21 16.34 -21 15.68 -21 15 C-16.61538462 12 -16.61538462 12 -14 12 C-14 11.34 -14 10.68 -14 10 C-9.61538462 7 -9.61538462 7 -7 7 C-7 6.34 -7 5.68 -7 5 C-5.03277992 3.61876037 -3.03131672 2.28511874 -1 1 C-0.67 0.67 -0.34 0.34 0 0 Z " fill="#88AF55" transform="translate(426,617)"/>
<path d="M0 0 C-0.56227499 7.45795304 -2.32019216 14.17341046 -4.5 21.3125 C-5.13590146 23.43344846 -5.77133767 25.55453648 -6.40625 27.67578125 C-6.68791016 28.60302002 -6.96957031 29.53025879 -7.25976562 30.4855957 C-7.89626535 32.64763749 -8.47381103 34.80893631 -9 37 C-9.66 37 -10.32 37 -11 37 C-11.10957031 37.66644531 -11.21914063 38.33289063 -11.33203125 39.01953125 C-12.29747375 44.63165637 -13.5225369 50.04762915 -15.0859375 55.51953125 C-16.09147982 59.34832701 -16.94404274 63.19665007 -17.79248047 67.06274414 C-19.49853764 74.83169714 -21.19618921 82.38463004 -24.15234375 89.79296875 C-25.43359987 93.12895819 -26.2116959 96.51832354 -27 100 C-27.99 99.67 -28.98 99.34 -30 99 C-30 98.34 -30 97.68 -30 97 C-30.66 97 -31.32 97 -32 97 C-34.36602936 93.84529419 -36.1879308 90.68190424 -37.875 87.125 C-39.71347518 83.3015576 -42.05380748 80.1391321 -44.73046875 76.859375 C-46.07162034 74.89510375 -46.5733677 73.32334699 -47 71 C-47.66 71 -48.32 71 -49 71 C-52 65.25 -52 65.25 -52 63 C-52.66 63 -53.32 63 -54 63 C-54.70576172 61.64455078 -54.70576172 61.64455078 -55.42578125 60.26171875 C-56.05439878 59.07016014 -56.68332109 57.87876228 -57.3125 56.6875 C-57.62123047 56.09259766 -57.92996094 55.49769531 -58.24804688 54.88476562 C-59.87891478 51.81186715 -61.44943268 49.35658051 -64 47 C-64.979106 45.33551979 -65.95394328 43.66782186 -66.87890625 41.97265625 C-68.48384712 39.14863137 -70.31492302 36.47958502 -72.14453125 33.796875 C-73 32 -73 32 -72 29 C-69.34765625 27.83203125 -69.34765625 27.83203125 -66.0625 26.8125 C-64.98097656 26.46832031 -63.89945313 26.12414062 -62.78515625 25.76953125 C-60 25 -60 25 -58 25 C-58 24.34 -58 23.68 -58 23 C-46.76953125 18.5078125 -46.76953125 18.5078125 -44.80712891 17.72753906 C-43.26321451 17.10596855 -41.72997901 16.45798268 -40.19921875 15.8046875 C-38 15 -38 15 -35 15 C-35 14.34 -35 13.68 -35 13 C-33.83984375 12.55269531 -32.6796875 12.10539063 -31.484375 11.64453125 C-1.36230415 0 -1.36230415 0 0 0 Z " fill="#87B057" transform="translate(751,602)"/>
<path d="M0 0 C3.13157624 1.43883233 4.9090839 3.59031663 7.3125 6.0625 C8.29001713 7.04331343 9.26922709 8.02244221 10.25 9 C12.29166667 11.04166667 14.33333333 13.08333333 16.375 15.125 C16.86742187 15.61677734 17.35984375 16.10855469 17.8671875 16.61523438 C19.24940235 17.99931708 20.62486896 19.39012907 22 20.78125 C24.35993522 23.17299186 24.35993522 23.17299186 27.3125 25.5625 C30.16585935 27.94029946 32.7174306 30.40708015 35.3125 33.0625 C36.075625 33.80371094 36.83875 34.54492188 37.625 35.30859375 C38.45 36.11425781 39.275 36.91992188 40.125 37.75 C40.91519531 38.51699219 41.70539063 39.28398438 42.51953125 40.07421875 C44.3125 42.0625 44.3125 42.0625 44.3125 44.0625 C35.27138801 44.41126485 26.22971136 44.74359024 17.1875 45.0625 C16.17761269 45.09813175 16.17761269 45.09813175 15.14732361 45.13448334 C-10.46920137 46.03243647 -36.05511347 46.31124666 -61.6875 46.0625 C-64.24454572 36.04164515 -64.24454572 36.04164515 -62.30078125 32.625 C-58.89578346 30.58912688 -55.46130521 28.7579647 -51.875 27.0625 C-47.79286784 25.10001017 -43.74750104 23.13873048 -39.82421875 20.87109375 C-36.6875 19.0625 -36.6875 19.0625 -34.3125 18.125 C-30.915033 16.74983479 -27.84089653 14.92649193 -24.67578125 13.0859375 C-22.6875 12.0625 -22.6875 12.0625 -20.6875 12.0625 C-20.6875 11.4025 -20.6875 10.7425 -20.6875 10.0625 C-19.718125 9.77375 -18.74875 9.485 -17.75 9.1875 C-14.58085797 8.42035318 -14.58085797 8.42035318 -13.6875 6.0625 C-12.6975 6.0625 -11.7075 6.0625 -10.6875 6.0625 C-10.6875 5.4025 -10.6875 4.7425 -10.6875 4.0625 C-3.81437188 0.08870632 -3.81437188 0.08870632 0 0 Z " fill="#86AE57" transform="translate(465.6875,669.9375)"/>
<path d="M0 0 C16 2 16 2 22 4 C23.46719459 4.30257259 24.94319394 4.56643612 26.42578125 4.78125 C27.22306641 4.90113281 28.02035156 5.02101562 28.84179688 5.14453125 C29.65712891 5.26183594 30.47246094 5.37914062 31.3125 5.5 C38.67790794 6.57498336 46.01748748 7.65571322 53.08984375 10.04296875 C56.53628603 11.17636252 59.99080483 11.75011187 63.5625 12.3125 C73.83157068 14.01612994 83.90008084 16.50217053 94 19 C94 25.27 94 31.54 94 38 C62.98 38 31.96 38 0 38 C0 25.46 0 12.92 0 0 Z " fill="#FDFEFC" transform="translate(511,165)"/>
<path d="M0 0 C38.28 0 76.56 0 116 0 C118.65354507 7.96063522 120.90981603 15.88595556 123 24 C123.18771973 24.72364746 123.37543945 25.44729492 123.56884766 26.19287109 C124.13403085 28.37738323 124.69316577 30.56334616 125.25 32.75 C125.42523193 33.4294165 125.60046387 34.10883301 125.78100586 34.80883789 C126.49057077 37.62815198 127 40.07885326 127 43 C123.50465413 42.30915517 120.70601993 40.90493315 117.5625 39.25 C113.21722671 37.02967133 108.88896788 35.12950397 104.3125 33.4375 C99.6142165 31.69386495 95.39236633 29.6693382 91.078125 27.13671875 C87.84225138 25.36672021 84.48182861 24.20281352 81 23 C81 22.34 81 21.68 81 21 C80.175 20.9175 79.35 20.835 78.5 20.75 C74.93792486 19.98669818 72.40100212 18.79503471 69.21484375 17.11328125 C65.26223439 15.12651993 61.12049473 13.59980056 57 12 C56.13761719 11.6390625 55.27523437 11.278125 54.38671875 10.90625 C47.59573556 8.32767701 41.74377692 10.85689345 35.18359375 13.125 C31.96593647 14.00936225 29.31826705 14.15967601 26 14 C26 14.66 26 15.32 26 16 C23.4604163 16.67561372 20.91881165 17.34065828 18.375 18 C17.66214844 18.19078125 16.94929688 18.3815625 16.21484375 18.578125 C12.04151456 19.65017287 8.34821249 20.21946814 4 20 C3.87882812 19.443125 3.75765625 18.88625 3.6328125 18.3125 C2.77336905 14.39872676 1.88417635 10.50312055 0.875 6.625 C0 3 0 3 0 0 Z " fill="#93B65C" transform="translate(353,513)"/>
<path d="M0 0 C2.5625 2.25 2.5625 2.25 5 5 C5.52980469 5.59683594 6.05960938 6.19367187 6.60546875 6.80859375 C12.78380912 13.86745769 12.53084599 19.82119029 12 29 C10.90522115 34.23252569 7.95346392 37.50624119 4 41 C3.49984375 41.45632813 2.9996875 41.91265625 2.484375 42.3828125 C-3.80599101 47.94247943 -9.91056576 47.39511375 -18 47 C-25.15411539 46.16812612 -29.1929828 43.18128616 -33.875 37.875 C-35 36 -35 36 -35 33 C-35.66 33 -36.32 33 -37 33 C-39.2546715 26.2359855 -39.44604621 16.77272957 -36.87109375 10.0546875 C-35.40280703 7.7928359 -33.89178812 5.91776233 -32 4 C-31.50886719 3.48050781 -31.01773438 2.96101562 -30.51171875 2.42578125 C-22.70333147 -4.91957498 -8.99751582 -5.32506038 0 0 Z " fill="#8CB256" transform="translate(565,547)"/>
<path d="M0 0 C11.88 0 23.76 0 36 0 C36 14.52 36 29.04 36 44 C24.12 44 12.24 44 0 44 C0 29.48 0 14.96 0 0 Z " fill="#97B85C" transform="translate(435,445)"/>
<path d="M0 0 C15.84 0 31.68 0 48 0 C48 10.56 48 21.12 48 32 C32.16 32 16.32 32 0 32 C0 21.44 0 10.88 0 0 Z " fill="#90B456" transform="translate(613,456)"/>
<path d="M0 0 C7.1465625 -0.0309375 7.1465625 -0.0309375 14.4375 -0.0625 C15.9423999 -0.071604 17.4472998 -0.08070801 18.99780273 -0.09008789 C20.17286377 -0.09258545 21.3479248 -0.09508301 22.55859375 -0.09765625 C24.37315063 -0.10551147 24.37315063 -0.10551147 26.22436523 -0.11352539 C29 0 29 0 30 1 C30.08790975 3.29151417 30.10694038 5.58572524 30.09765625 7.87890625 C30.0962413 8.5655687 30.09482635 9.25223114 30.09336853 9.95970154 C30.08775479 12.16067801 30.07520007 14.36155409 30.0625 16.5625 C30.05748676 18.05143083 30.05292355 19.54036324 30.04882812 21.02929688 C30.03863021 24.68626805 30.01905779 28.34302117 30 32 C20.1 32 10.2 32 0 32 C0 21.44 0 10.88 0 0 Z " fill="#94B75B" transform="translate(687,456)"/>
<path d="M0 0 C0 0.66 0 1.32 0 2 C0.556875 2.04125 1.11375 2.0825 1.6875 2.125 C5.35431358 3.51244298 7.35735799 5.53007792 9 9 C10.21689404 14.71639732 10.33054079 19.68822507 7.36328125 24.84375 C4.30579946 28.31292144 1.7145072 30.58436189 -2.8359375 31.6875 C-10.09249544 32.00559569 -13.98086257 29.6927442 -19.3125 24.9375 C-22.40202836 21.39026373 -22.2868654 17.75531383 -22.20703125 13.27734375 C-21.76687746 8.43565204 -19.64171197 5.25026313 -16.0625 2.125 C-11.19113873 -1.16106913 -5.6305168 -0.41604804 0 0 Z " fill="#80AB56" transform="translate(449,826)"/>
<path d="M0 0 C3.375 1.6875 3.375 1.6875 6 4 C6.78375 4.680625 7.5675 5.36125 8.375 6.0625 C10.91137478 10.64748518 10.82216335 14.88586529 10 20 C8.73697212 23.30701192 7.25957512 26.26304986 5 29 C1.43954823 30.18681726 -1.43808337 30.09689832 -5.1875 30.0625 C-6.45980469 30.05347656 -7.73210938 30.04445313 -9.04296875 30.03515625 C-10.50669922 30.01775391 -10.50669922 30.01775391 -12 30 C-12 29.34 -12 28.68 -12 28 C-12.61875 27.9175 -13.2375 27.835 -13.875 27.75 C-16 27 -16 27 -17.25 24.9375 C-17.4975 24.298125 -17.745 23.65875 -18 23 C-18.66 23 -19.32 23 -20 23 C-21.30459914 20.39080172 -21.1326594 18.41057385 -21.125 15.5 C-21.12757813 14.5203125 -21.13015625 13.540625 -21.1328125 12.53125 C-21 10 -21 10 -20 8 C-19.34 8 -18.68 8 -18 8 C-17.9175 7.401875 -17.835 6.80375 -17.75 6.1875 C-16.77822147 3.35314597 -15.51696446 2.5545957 -13 1 C-8.64950335 -0.45016555 -4.54665815 -0.51070107 0 0 Z " fill="#80AC57" transform="translate(667,826)"/>
<path d="M0 0 C47.85 0 95.7 0 145 0 C145 52.8 145 105.6 145 160 C134.11 160 123.22 160 112 160 C112 159.67 112 159.34 112 159 C122.56 159 133.12 159 144 159 C144 107.19 144 55.38 144 2 C97.14 2 50.28 2 2 2 C2 42.26 2 82.52 2 124 C1.34 124 0.68 124 0 124 C0 83.08 0 42.16 0 0 Z " fill="#D9E6C0" transform="translate(485,211)"/>
<path d="M0 0 C9.57 0 19.14 0 29 0 C29.0825 2.35125 29.165 4.7025 29.25 7.125 C29.28641602 7.85348145 29.32283203 8.58196289 29.36035156 9.33251953 C29.4450198 14.36754841 28.21325165 17.17980082 25 21 C24.34 21 23.68 21 23 21 C23 21.66 23 22.32 23 23 C17.45469698 26.50451891 10.28375555 25.67692252 4 25 C0.49964183 23.47201757 -1.13239736 21.18309451 -3.375 18.125 C-5.52147136 10.82699737 -3.1845266 7.16518484 0 0 Z " fill="#F7FAF4" transform="translate(579,416)"/>
<path d="M0 0 C10.56 0 21.12 0 32 0 C32 16 32 16 29 21 C24.95195768 24.2712173 21.61214427 24.37895788 16.5 24.3125 C15.2109375 24.30863281 13.921875 24.30476563 12.59375 24.30078125 C9.23025709 24.01927152 6.93618399 23.63790861 4 22 C3.67 21.01 3.34 20.02 3 19 C2.34 19 1.68 19 1 19 C-1.00554786 12.98335642 0 6.3420992 0 0 Z " fill="#F9FBF7" transform="translate(614,416)"/>
<path d="M0 0 C10.56 0 21.12 0 32 0 C32 17.97619048 32 17.97619048 28.375 21.6875 C22.85034309 25.49721133 15.38750776 24.8497793 9 24 C4.48908212 21.97203692 3.29909398 20.12386747 0 16 C0 10.72 0 5.44 0 0 Z " fill="#F9FBF7" transform="translate(691,416)"/>
<path d="M0 0 C9.57 0 19.14 0 29 0 C29.66 3.3 30.32 6.6 31 10 C31.33 10.33 31.66 10.66 32 11 C32.14115161 13.67058851 32.04247107 16.32432238 32 19 C31.34 19 30.68 19 30 19 C30 19.66 30 20.32 30 21 C24.06746658 25.21869043 19.21018808 25.89067029 12 25 C7.15793629 23.70176553 3.69742423 21.56789819 0.93359375 17.38671875 C-0.38069173 14.02676717 -0.21146928 10.79600582 -0.125 7.25 C-0.08375 4.8575 -0.0425 2.465 0 0 Z " fill="#FAFCF8" transform="translate(729,416)"/>
<path d="M0 0 C10.23 0 20.46 0 31 0 C31 15 31 15 27 21 C26.34 21 25.68 21 25 21 C25 21.66 25 22.32 25 23 C19.08580422 24.97139859 12.34586371 24.83780847 6.5 22.75 C1.96423659 19.57496561 1.96423659 19.57496561 0 17 C-0.49055456 14.0641506 -0.37689863 11.21583436 -0.25 8.25 C-0.1675 5.5275 -0.085 2.805 0 0 Z " fill="#FBFCF9" transform="translate(653,417)"/>
<path d="M0 0 C0.52505127 0.28004883 1.05010254 0.56009766 1.59106445 0.84863281 C11.93548076 5.49360943 23.06593851 4.6754343 34.1875 4.75 C36.30536258 4.77819711 38.42320279 4.80812969 40.54101562 4.83984375 C45.69397003 4.91326431 50.84665988 4.96311093 56 5 C55.01 5.33 54.02 5.66 53 6 C53 6.66 53 7.32 53 8 C52.38253906 8.13535156 51.76507813 8.27070312 51.12890625 8.41015625 C43.57055585 10.33138078 36.91825282 13.50069915 32.55078125 20.234375 C31.30268108 22.62743253 31.30268108 22.62743253 30 26 C29.34 26 28.68 26 28 26 C28 26.66 28 27.32 28 28 C27.34 28 26.68 28 26 28 C24.4140625 26.390625 24.4140625 26.390625 22.625 24.25 C20.66242273 21.93096298 18.7411705 19.74780716 16.5625 17.625 C15 16 15 16 15 14 C14.443125 13.773125 13.88625 13.54625 13.3125 13.3125 C10.33840412 11.62449964 8.27991135 9.53323483 6 7 C6 6.34 6 5.68 6 5 C5.38125 4.690625 4.7625 4.38125 4.125 4.0625 C2.75 3.375 1.375 2.6875 0 2 C0 1.34 0 0.68 0 0 Z " fill="#82AC54" transform="translate(381,799)"/>
<path d="M0 0 C0.56522098 0.21193664 1.13044196 0.42387328 1.71279085 0.64223224 C9.05151969 3.14380228 15.7957782 3.4290639 23.50283813 3.39872742 C24.84790973 3.4041759 26.19297655 3.4109312 27.53803575 3.41886932 C31.20960873 3.43680153 34.8809785 3.43634909 38.55258489 3.43273985 C42.52112255 3.43211371 46.48959337 3.44875743 50.45809937 3.46325684 C57.32566453 3.48600658 64.1931791 3.49792168 71.06077957 3.50238609 C80.99004745 3.50885661 90.919224 3.53180984 100.848455 3.55872939 C116.95966677 3.60196409 133.07087469 3.63194978 149.18212891 3.65356445 C164.82863254 3.67458409 180.47510467 3.70186778 196.12158203 3.73754883 C197.08674136 3.73974765 198.0519007 3.74194648 199.04630728 3.74421193 C203.88844026 3.75528183 208.73057295 3.7664746 213.57270551 3.77772844 C253.71510954 3.87086657 293.85753004 3.9424863 334 4 C334 4.33 334 4.66 334 5 C317.17 5 300.34 5 283 5 C283 5.66 283 6.32 283 7 C282.14277344 7.06058594 281.28554688 7.12117187 280.40234375 7.18359375 C274.56395127 7.61143536 268.77942728 8.059163 263 9 C266 7 266 7 269 6 C202.34 5.67 135.68 5.34 67 5 C67 5.66 67 6.32 67 7 C61.39 7 55.78 7 50 7 C50 6.67 50 6.34 50 6 C48.76958984 5.9906543 47.53917969 5.98130859 46.27148438 5.97167969 C41.67900222 5.93161775 37.08717858 5.86581434 32.49511719 5.79248047 C30.51278178 5.76436453 28.53033621 5.74310362 26.54785156 5.72900391 C23.68758125 5.70744408 20.8286223 5.66072785 17.96875 5.609375 C17.09134155 5.60814636 16.21393311 5.60691772 15.30993652 5.60565186 C9.20646283 5.4624211 5.28460509 4.07020579 0 1 C0 0.67 0 0.34 0 0 Z " fill="#C1D7A9" transform="translate(384,799)"/>
<path d="M0 0 C67.65 0 135.3 0 205 0 C201.81237635 2.12508244 199.73487777 2.5020163 196 3 C196 2.34 196 1.68 196 1 C195.01 1 194.02 1 193 1 C192.67 1.66 192.34 2.32 192 3 C192 2.34 192 1.68 192 1 C191.32880127 1.07068632 190.65760254 1.14137264 189.96606445 1.21420097 C181.03013649 2.06544357 172.15196464 2.14181562 163.1875 2.12939453 C161.52721621 2.13075237 159.86693271 2.13253445 158.20664978 2.13470459 C153.73408634 2.13923054 149.26154619 2.13751018 144.78898239 2.1343255 C140.09703258 2.13178015 135.40508466 2.13414516 130.71313477 2.13571167 C122.84537399 2.1375256 114.97762263 2.13514597 107.10986328 2.13037109 C98.01427269 2.12491481 88.91870446 2.12670413 79.8231144 2.1321975 C72.00036744 2.13673274 64.17762722 2.13737761 56.35487938 2.13475883 C51.68799853 2.13320027 47.02112822 2.1329911 42.35424805 2.13629532 C37.97440603 2.1391805 33.59459299 2.13718641 29.2147541 2.13140106 C27.60709239 2.1300776 25.99942825 2.13046059 24.3917675 2.13266373 C22.19986598 2.13539104 20.00805767 2.13197486 17.81616211 2.12698364 C16.58917099 2.12660662 15.36217987 2.12622959 14.0980072 2.12584114 C11.52948407 2.02150766 9.43790153 1.76214113 7 1 C7 1.66 7 2.32 7 3 C4.69 2.67 2.38 2.34 0 2 C0 1.34 0 0.68 0 0 Z " fill="#83AD57" transform="translate(451,804)"/>
<path d="M0 0 C53.79 0 107.58 0 163 0 C163 0.99 163 1.98 163 3 C161.35 3.33 159.7 3.66 158 4 C158 3.67 158 3.34 158 3 C106.52 2.67 55.04 2.34 2 2 C1.67 2.66 1.34 3.32 1 4 C0.67 2.68 0.34 1.36 0 0 Z " fill="#D0E2B7" transform="translate(601,512)"/>
<path d="M0 0 C4.62 0 9.24 0 14 0 C14 7.59 14 15.18 14 23 C9.38 23 4.76 23 0 23 C0 15.41 0 7.82 0 0 Z " fill="#9FBC66" transform="translate(578,314)"/>
<path d="M0 0 C4.29 0 8.58 0 13 0 C13 7.92 13 15.84 13 24 C8.71 24 4.42 24 0 24 C0 16.08 0 8.16 0 0 Z " fill="#A3BF68" transform="translate(528,313)"/>
<path d="M0 0 C4.29 0 8.58 0 13 0 C13 7.92 13 15.84 13 24 C8.71 24 4.42 24 0 24 C0 16.08 0 8.16 0 0 Z " fill="#A1BE67" transform="translate(554,279)"/>
<path d="M0 0 C4.29 0 8.58 0 13 0 C13 7.92 13 15.84 13 24 C8.71 24 4.42 24 0 24 C0 16.08 0 8.16 0 0 Z " fill="#A4C069" transform="translate(528,279)"/>
<path d="M0 0 C3.96 0 7.92 0 12 0 C13 1 13 1 13.11352539 3.22485352 C13.10828857 4.18319092 13.10305176 5.14152832 13.09765625 6.12890625 C13.09443359 7.16337891 13.09121094 8.19785156 13.08789062 9.26367188 C13.07951172 10.35228516 13.07113281 11.44089844 13.0625 12.5625 C13.05798828 13.65498047 13.05347656 14.74746094 13.04882812 15.87304688 C13.0369984 18.58205432 13.01906231 21.2910338 13 24 C8.71 24 4.42 24 0 24 C0 16.08 0 8.16 0 0 Z " fill="#A3C068" transform="translate(554,245)"/>
<path d="M0 0 C4.29 0 8.58 0 13 0 C13 7.59 13 15.18 13 23 C8.71 23 4.42 23 0 23 C0 15.41 0 7.82 0 0 Z " fill="#9BBA62" transform="translate(554,348)"/>
<path d="M0 0 C4.29 0 8.58 0 13 0 C13 7.59 13 15.18 13 23 C8.71 23 4.42 23 0 23 C0 15.41 0 7.82 0 0 Z " fill="#A2BE67" transform="translate(579,245)"/>
<path d="M0 0 C4.29 0 8.58 0 13 0 C13 7.59 13 15.18 13 23 C8.71 23 4.42 23 0 23 C0 15.41 0 7.82 0 0 Z " fill="#A5C06A" transform="translate(528,245)"/>
<path d="M0 0 C3.96 0 7.92 0 12 0 C12 7.26 12 14.52 12 22 C8.04 22 4.08 22 0 22 C0 14.74 0 7.48 0 0 Z " fill="#99B75A" transform="translate(554,314)"/>
<path d="M0 0 C3.96 0 7.92 0 12 0 C12 7.26 12 14.52 12 22 C8.04 22 4.08 22 0 22 C0 14.74 0 7.48 0 0 Z " fill="#98B759" transform="translate(579,280)"/>
<path d="M0 0 C0.61179045 0.2115463 1.22358089 0.42309259 1.85391045 0.64104939 C7.87154499 2.60193977 13.18069001 3.44348109 19.48876953 3.43237305 C20.37780472 3.4425647 21.2668399 3.45275635 22.18281555 3.46325684 C25.08288074 3.49313342 27.98261432 3.50261366 30.8828125 3.51171875 C32.90877356 3.52858426 34.93472427 3.546737 36.96066284 3.56611633 C42.2640052 3.61341911 47.56730559 3.64335575 52.87078857 3.66955566 C58.29415164 3.69946111 63.71737041 3.74595695 69.140625 3.79101562 C79.76034088 3.87682416 90.38008664 3.94426887 101 4 C101 4.33 101 4.66 101 5 C89.78 5 78.56 5 67 5 C67 5.66 67 6.32 67 7 C61.39 7 55.78 7 50 7 C50 6.67 50 6.34 50 6 C48.76958984 5.9906543 47.53917969 5.98130859 46.27148438 5.97167969 C41.67900222 5.93161775 37.08717858 5.86581434 32.49511719 5.79248047 C30.51278178 5.76436453 28.53033621 5.74310362 26.54785156 5.72900391 C23.68758125 5.70744408 20.8286223 5.66072785 17.96875 5.609375 C17.09134155 5.60814636 16.21393311 5.60691772 15.30993652 5.60565186 C9.20646283 5.4624211 5.28460509 4.07020579 0 1 C0 0.67 0 0.34 0 0 Z " fill="#BCD3A1" transform="translate(384,799)"/>
<path d="M0 0 C0.66 0.33 1.32 0.66 2 1 C-10.87 13.87 -23.74 26.74 -37 40 C-37 37 -37 37 -35.49609375 35.23828125 C-34.81675781 34.60277344 -34.13742188 33.96726563 -33.4375 33.3125 C-30.63125744 30.61494994 -27.96900744 27.89476096 -25.4375 24.9375 C-20.36492849 19.06158006 -14.87677748 13.83917748 -9 8.77734375 C-5.86211898 5.98879714 -2.92589677 3.00818762 0 0 Z " fill="#C4DB8A" transform="translate(168,131)"/>
<path d="M0 0 C10.23 0 20.46 0 31 0 C31 0.66 31 1.32 31 2 C32.953125 1.93489583 34.90625 1.86979167 36.859375 1.8046875 C39.30155975 2.02751458 40.88636771 2.79085 43 4 C41.86046875 3.93941406 40.7209375 3.87882813 39.546875 3.81640625 C38.79156494 3.77652588 38.03625488 3.73664551 37.25805664 3.69555664 C35.56968484 3.60598567 33.88137147 3.51530725 32.19311523 3.42358398 C27.6047954 3.17715465 23.01743894 2.95570876 18.42578125 2.78125 C17.52827148 2.74443115 16.63076172 2.7076123 15.70605469 2.66967773 C13.97131081 2.59934595 12.23626128 2.53611895 10.50097656 2.48071289 C9.70788086 2.4471167 8.91478516 2.41352051 8.09765625 2.37890625 C7.40164307 2.3538501 6.70562988 2.32879395 5.98852539 2.30297852 C4 2 4 2 0 0 Z " fill="#D2E4A4" transform="translate(531,0)"/>
<path d="M0 0 C1.13917374 0.00666183 1.13917374 0.00666183 2.30136108 0.01345825 C3.59247299 0.01368484 3.59247299 0.01368484 4.90966797 0.01391602 C5.83991791 0.02423859 6.77016785 0.03456116 7.72860718 0.04519653 C8.68020721 0.04802643 9.63180725 0.05085632 10.61224365 0.05377197 C13.6589706 0.06498914 16.70540621 0.09009641 19.75204468 0.11550903 C21.81454044 0.12553685 23.8770408 0.13466304 25.93954468 0.14285278 C31.00215735 0.16493349 36.06455158 0.19947374 41.12704468 0.24050903 C37.93942102 2.36559147 35.86192245 2.74252533 32.12704468 3.24050903 C32.12704468 2.58050903 32.12704468 1.92050903 32.12704468 1.24050903 C31.13704468 1.24050903 30.14704468 1.24050903 29.12704468 1.24050903 C28.79704468 1.90050903 28.46704468 2.56050903 28.12704468 3.24050903 C28.12704468 2.58050903 28.12704468 1.92050903 28.12704468 1.24050903 C27.49282593 1.31269653 26.85860718 1.38488403 26.20516968 1.45925903 C16.18123073 2.45611484 6.19001386 2.33000184 -3.87295532 2.24050903 C-1.87295532 0.24050903 -1.87295532 0.24050903 0 0 Z " fill="#86AD5B" transform="translate(614.8729553222656,803.7594909667969)"/>
<path d="M0 0 C16.83 0 33.66 0 51 0 C51 0.33 51 0.66 51 1 C44.02985877 2.30690148 37.07118304 2.1469602 30 2.125 C28.75476563 2.12886719 27.50953125 2.13273438 26.2265625 2.13671875 C20.38685679 2.13049305 14.74749009 2.07765439 9 1 C9 1.66 9 2.32 9 3 C6.03 2.67 3.06 2.34 0 2 C0 1.34 0 0.68 0 0 Z " fill="#8BB161" transform="translate(667,804)"/>
<path d="M0 0 C0.71865234 0.00451172 1.43730469 0.00902344 2.17773438 0.01367188 C2.90154297 0.01560547 3.62535156 0.01753906 4.37109375 0.01953125 C9.53688792 0.06115358 14.55889422 0.407409 19.67773438 1.13867188 C19.67773438 1.46867187 19.67773438 1.79867188 19.67773438 2.13867188 C11.624153 2.28392685 3.69897589 1.85280467 -4.32226562 1.13867188 C-4.56976563 1.75742187 -4.81726563 2.37617188 -5.07226562 3.01367188 C-6.32226562 5.13867188 -6.32226562 5.13867188 -10.32226562 7.13867188 C-9.99226562 11.42867188 -9.66226563 15.71867187 -9.32226562 20.13867188 C-9.98226562 19.80867188 -10.64226562 19.47867187 -11.32226562 19.13867188 C-12.08793975 7.51744014 -12.08793975 7.51744014 -10.24414062 4.19726562 C-8.88476562 2.88867188 -8.88476562 2.88867188 -6.32226562 1.13867188 C-4.57775524 -0.60583851 -2.3224992 0.00666746 0 0 Z " fill="#DEEBC8" transform="translate(228.322265625,406.861328125)"/>
<path d="M0 0 C0.33 0 0.66 0 1 0 C1.05855176 3.52076232 1.0937806 7.0413976 1.125 10.5625 C1.15013672 12.0484668 1.15013672 12.0484668 1.17578125 13.56445312 C1.21274359 19.12728491 0.87082551 23.74843075 -1 29 C-1.33 29 -1.66 29 -2 29 C-1.86105043 24.91640184 -1.71265062 20.83320044 -1.5625 16.75 C-1.52318359 15.59113281 -1.48386719 14.43226563 -1.44335938 13.23828125 C-1.40146484 12.12324219 -1.35957031 11.00820313 -1.31640625 9.859375 C-1.27974854 8.83295898 -1.24309082 7.80654297 -1.20532227 6.74902344 C-1.02717872 4.36389113 -0.67222637 2.28700501 0 0 Z " fill="#DFE9CA" transform="translate(1023,540)"/>
<path d="M0 0 C-0.47102476 8.79246214 -3.24216834 16.70615203 -6 25 C-7.37117631 21.29782396 -6.52269152 19.54102424 -5 16 C-4.4176812 13.57189089 -3.8778743 11.13329772 -3.375 8.6875 C-3.11460937 7.43324219 -2.85421875 6.17898438 -2.5859375 4.88671875 C-2.39257812 3.93410156 -2.19921875 2.98148438 -2 2 C-2.7425 2.350625 -3.485 2.70125 -4.25 3.0625 C-7.1322726 4.04509293 -8.21176345 4.0326802 -11 3 C-9.73160474 2.49384702 -8.46016898 1.99530901 -7.1875 1.5 C-6.12595703 1.08234375 -6.12595703 1.08234375 -5.04296875 0.65625 C-3 0 -3 0 0 0 Z " fill="#CEE0B8" transform="translate(751,602)"/>
<path d="M0 0 C6.71272902 -0.31663816 12.51128872 0.84425988 19 2.5 C19.96550781 2.73847656 20.93101562 2.97695312 21.92578125 3.22265625 C24.28603987 3.80687868 26.64384982 4.39946281 29 5 C25.67583214 5.92177662 23.52818628 5.93270606 20.125 5.25 C19.17238281 5.06179687 18.21976563 4.87359375 17.23828125 4.6796875 C11.48778556 3.4727077 5.73982493 2.25689597 0 1 C0 0.67 0 0.34 0 0 Z " fill="#CFE39A" transform="translate(591,6)"/>
<path d="M0 0 C0 0.33 0 0.66 0 1 C-5.62257161 2.9169573 -10.52369385 3.24889924 -16.4375 3.125 C-17.26443359 3.11597656 -18.09136719 3.10695313 -18.94335938 3.09765625 C-20.96236708 3.07431512 -22.98122356 3.03845288 -25 3 C-25 2.67 -25 2.34 -25 2 C-22.33397504 1.66068773 -19.66736986 1.32842824 -17 1 C-15.88431641 0.85691406 -15.88431641 0.85691406 -14.74609375 0.7109375 C-9.79111949 0.10772324 -4.99157504 -0.09075591 0 0 Z " fill="#E7EEDD" transform="translate(571,1021)"/>
<path d="M0 0 C3.12492251 -0.05791844 6.24970766 -0.09356746 9.375 -0.125 C10.26445312 -0.14175781 11.15390625 -0.15851562 12.0703125 -0.17578125 C12.92109375 -0.18222656 13.771875 -0.18867187 14.6484375 -0.1953125 C15.82672119 -0.21102295 15.82672119 -0.21102295 17.02880859 -0.22705078 C19 0 19 0 21 2 C19.41676312 2.027193 17.83338938 2.04648306 16.25 2.0625 C14.92742187 2.07990234 14.92742187 2.07990234 13.578125 2.09765625 C11.2181162 2.00826198 9.25501476 1.66912821 7 1 C7 1.66 7 2.32 7 3 C4.69 2.67 2.38 2.34 0 2 C0 1.34 0 0.68 0 0 Z " fill="#83AA55" transform="translate(451,804)"/>
<path d="M0 0 C0.66 0.33 1.32 0.66 2 1 C0.38113585 2.67262717 -1.2452729 4.33795537 -2.875 6 C-4.23238281 7.3921875 -4.23238281 7.3921875 -5.6171875 8.8125 C-8 11 -8 11 -10 11 C-10 11.99 -10 12.98 -10 14 C-10.66 14 -11.32 14 -12 14 C-10.66445565 10.02119078 -9.01381696 7.65301487 -6 4.75 C-4.948125 3.72132813 -4.948125 3.72132813 -3.875 2.671875 C-2 1 -2 1 0 0 Z " fill="#E0ECD3" transform="translate(525,533)"/>
<path d="M0 0 C0.66 0.33 1.32 0.66 2 1 C-1.96 4.96 -5.92 8.92 -10 13 C-10 8.41771462 -7.08388033 6.1816619 -4 3 C-1.625 1.0625 -1.625 1.0625 0 0 Z " fill="#E7F1E3" transform="translate(642,810)"/>
<path d="M0 0 C1.46795245 3.81667636 0.59626457 6.32859149 -1 10 C-1.99 10.66 -2.98 11.32 -4 12 C-3.45660208 7.43545749 -2.20536179 4.0271824 0 0 Z " fill="#ACC67A" transform="translate(574,409)"/>
<path d="M0 0 C3.66172475 0.62678171 6.8818995 1.64451846 10.3125 3.0625 C11.19550781 3.42472656 12.07851563 3.78695313 12.98828125 4.16015625 C13.65214844 4.43730469 14.31601562 4.71445312 15 5 C11.26221645 6.24592785 10.0089867 5.54425229 6.375 4.1875 C4.90160156 3.65189453 4.90160156 3.65189453 3.3984375 3.10546875 C1 2 1 2 0 0 Z " fill="#CBE195" transform="translate(671,25)"/>
<path d="M0 0 C0.99 0.33 1.98 0.66 3 1 C3.33 1.99 3.66 2.98 4 4 C5.29355827 5.37195574 6.62298702 6.71182656 8 8 C7.34 8 6.68 8 6 8 C5.67 8.99 5.34 9.98 5 11 C4.35165346 9.730447 3.70642185 8.45930294 3.0625 7.1875 C2.70285156 6.47980469 2.34320313 5.77210938 1.97265625 5.04296875 C1 3 1 3 0 0 Z " fill="#B2CC83" transform="translate(329,430)"/>
<path d="M0 0 C0.66 0.33 1.32 0.66 2 1 C1.2884375 1.61875 1.2884375 1.61875 0.5625 2.25 C-1.16266518 4.182185 -1.56584875 5.48192275 -2 8 C-3.5 6.625 -3.5 6.625 -5 5 C-5 4.34 -5 3.68 -5 3 C-4.34 3 -3.68 3 -3 3 C-3 2.34 -3 1.68 -3 1 C-2.01 0.67 -1.02 0.34 0 0 Z " fill="#ADC88C" transform="translate(482,660)"/>
<path d="M0 0 C0.66 0.33 1.32 0.66 2 1 C1.54625 1.433125 1.0925 1.86625 0.625 2.3125 C-1.20024334 4.10798342 -1.20024334 4.10798342 -3 7 C-3.66 5.35 -4.32 3.7 -5 2 C-2.625 0.9375 -2.625 0.9375 0 0 Z " fill="#A3C27C" transform="translate(683,630)"/>
<path d="M0 0 C2.39073445 3.82517513 2.55966552 7.59665524 3 12 C1 11 1 11 0 8 C-0.12781786 5.32605036 -0.04391871 2.67904143 0 0 Z " fill="#BAD49C" transform="translate(414,567)"/>
<path d="M0 0 C0.33 0 0.66 0 1 0 C0.88601335 1.62580966 0.75844341 3.25067157 0.625 4.875 C0.52058594 6.23238281 0.52058594 6.23238281 0.4140625 7.6171875 C0 10 0 10 -2 12 C-2.28571429 3.42857143 -2.28571429 3.42857143 0 0 Z " fill="#EEF4E3" transform="translate(1023,557)"/>
<path d="M0 0 C-0.33 1.65 -0.66 3.3 -1 5 C-1.33 4.01 -1.66 3.02 -2 2 C-2.7425 2.350625 -3.485 2.70125 -4.25 3.0625 C-7.21122875 4.0720098 -8.12062561 3.87980884 -11 3 C-9.73160474 2.49384702 -8.46016898 1.99530901 -7.1875 1.5 C-6.12595703 1.08234375 -6.12595703 1.08234375 -5.04296875 0.65625 C-3 0 -3 0 0 0 Z " fill="#ABC988" transform="translate(751,602)"/>
<path d="M0 0 C-1.15173355 2.46800047 -2.04783565 4.04783565 -4 6 C-4.69748583 7.31747324 -5.36959957 8.64914193 -6 10 C-5.38909774 3.52443609 -5.38909774 3.52443609 -3.5625 1.0625 C-2 0 -2 0 0 0 Z " fill="#E7F0DE" transform="translate(610,573)"/>
<path d="M0 0 C1.18771723 3.42943519 0.80226223 5.37784675 -0.4375 8.75 C-0.86869141 9.94882812 -0.86869141 9.94882812 -1.30859375 11.171875 C-1.65083984 12.07679688 -1.65083984 12.07679688 -2 13 C-3.1700097 9.08263419 -2.69584017 6.02040985 -2 2 C-1.34 2 -0.68 2 0 2 C0 1.34 0 0.68 0 0 Z " fill="#B2CC8F" transform="translate(765,549)"/>
<path d="M0 0 C0 3 0 3 -2 5.1875 C-2.66 5.785625 -3.32 6.38375 -4 7 C-4.66 6.67 -5.32 6.34 -6 6 C-2.25 1.125 -2.25 1.125 0 0 Z " fill="#A3C378" transform="translate(537,548)"/>
<path d="M0 0 C3.16115776 1.36983503 3.9927092 1.9890638 6 5 C5.34 5 4.68 5 4 5 C3.67 5.99 3.34 6.98 3 8 C2.01 5.36 1.02 2.72 0 0 Z " fill="#B3CD7E" transform="translate(487,335)"/>
</svg>
